<svg width="1024" height="1024" viewBox="0 0 1024 1024" fill="none" xmlns="http://www.w3.org/2000/svg">
<path fill-rule="evenodd" clip-rule="evenodd" d="M253 771.227V254.1C253 217.945 269.799 183.616 300.111 163.895C317.641 152.208 338.092 146 358.178 146C366.578 146 373.517 152.939 373.517 161.338V863.258C373.517 871.657 366.943 878.961 358.544 878.961C340.283 879.327 322.023 874.579 305.589 865.084C272.356 846.093 253 809.573 253 771.227ZM418.063 659.085L579.848 757.69L418.063 859.947V659.085ZM418.063 366.23L579.848 267.625L418.063 165.369V366.23ZM643.39 307.809L698.536 342.868C723.369 358.572 723.004 394.727 698.17 410.065L418.425 580.98V419.195L601.392 307.444C614.174 299.409 630.608 299.774 643.39 307.809ZM573.3 538.974L493.321 587.911L440.732 620.049L601.056 717.923C613.838 725.957 630.272 725.592 643.054 717.558L698.565 682.498C723.399 666.794 723.033 630.274 698.2 614.936L573.3 538.974ZM827.428 424.259C857.74 443.615 876 476.483 876 512.638C876 548.793 857.74 581.662 827.428 601.018L794.925 621.469L616.706 512.638L794.925 403.808L827.428 424.259Z" fill="url(#paint0_linear_2652_16774)"/>
<defs>
<linearGradient id="paint0_linear_2652_16774" x1="345.851" y1="974.129" x2="217.962" y2="27.3946" gradientUnits="userSpaceOnUse">
<stop stop-color="#9AE769"/>
<stop offset="1" stop-color="#69BD06"/>
</linearGradient>
</defs>
</svg>
