<svg width="15" height="14" viewBox="0 0 15 14" fill="none" xmlns="http://www.w3.org/2000/svg">
<path d="M15 0V10.8894C14.9998 11.5743 14.7703 12.24 14.3471 12.7832C13.9238 13.3265 13.3304 13.717 12.6589 13.8941C11.9874 14.0713 11.2754 14.0252 10.6332 13.763C9.99104 13.5008 9.45461 13.0372 9.10711 12.4441C8.75962 11.8509 8.62047 11.1614 8.71126 10.4824C8.80205 9.80337 9.11771 9.17286 9.60926 8.68861C10.1008 8.20437 10.7408 7.89345 11.43 7.80407C12.1192 7.7147 12.8191 7.85186 13.4211 8.1943V1.55563H6.31579V10.8894C6.31564 11.5743 6.08612 12.24 5.66285 12.7832C5.23957 13.3265 4.64618 13.717 3.97471 13.8941C3.30323 14.0713 2.59119 14.0252 1.94902 13.763C1.30684 13.5008 0.770402 13.0372 0.422905 12.4441C0.0754072 11.8509 -0.0637353 11.1614 0.0270554 10.4824C0.117846 9.80337 0.433497 9.17286 0.925055 8.68861C1.41661 8.20437 2.05661 7.89345 2.7458 7.80407C3.43498 7.7147 4.13484 7.85186 4.73685 8.1943V0H15ZM3.1579 12.4451C3.57666 12.4451 3.97827 12.2812 4.27438 11.9894C4.57049 11.6977 4.73685 11.302 4.73685 10.8894C4.73685 10.4769 4.57049 10.0812 4.27438 9.78943C3.97827 9.49769 3.57666 9.3338 3.1579 9.3338C2.73914 9.3338 2.33752 9.49769 2.04141 9.78943C1.7453 10.0812 1.57895 10.4769 1.57895 10.8894C1.57895 11.302 1.7453 11.6977 2.04141 11.9894C2.33752 12.2812 2.73914 12.4451 3.1579 12.4451ZM11.8421 12.4451C12.2609 12.4451 12.6625 12.2812 12.9586 11.9894C13.2547 11.6977 13.4211 11.302 13.4211 10.8894C13.4211 10.4769 13.2547 10.0812 12.9586 9.78943C12.6625 9.49769 12.2609 9.3338 11.8421 9.3338C11.4233 9.3338 11.0217 9.49769 10.7256 9.78943C10.4295 10.0812 10.2632 10.4769 10.2632 10.8894C10.2632 11.302 10.4295 11.6977 10.7256 11.9894C11.0217 12.2812 11.4233 12.4451 11.8421 12.4451Z" fill="white"/>
</svg>
