<svg width="47" height="47" viewBox="0 0 47 47" fill="none" xmlns="http://www.w3.org/2000/svg">
<rect x="1" y="1" width="45" height="45" rx="22.5" fill="url(#paint0_radial_594_1654)"/>
<rect x="0.5" y="0.5" width="46" height="46" rx="23" stroke="white" stroke-opacity="0.2"/>
<path d="M31.9996 26.841C31.9996 27.9812 31.7765 28.9726 31.3304 29.7906C30.8842 30.6086 30.2646 31.2778 29.5209 31.8231C28.7526 32.3684 27.885 32.765 26.8688 33.0129C25.8773 33.2607 24.8115 33.3847 23.6713 33.3847C22.9524 33.3847 22.2336 33.3599 21.5148 33.3103C20.796 33.2608 20.0772 33.1616 19.3832 32.9633C18.6891 32.7898 17.9951 32.5171 17.3011 32.1453C16.607 31.7735 15.9378 31.253 15.2686 30.5838L19.0609 26.7914C19.4575 27.188 19.9037 27.5102 20.325 27.7333C20.7464 27.9564 21.1926 28.1051 21.6388 28.229C22.0601 28.3282 22.4815 28.4025 22.8285 28.4025C23.2003 28.4025 23.4978 28.4273 23.7456 28.4273C23.9687 28.4273 24.2166 28.4025 24.4892 28.3778C24.7867 28.353 25.0593 28.2786 25.3072 28.1795C25.5799 28.0803 25.8029 27.9564 25.9764 27.7829C26.1499 27.6094 26.2491 27.4111 26.2491 27.1632C26.2491 26.8906 26.1499 26.6427 25.9764 26.3948C25.8029 26.1469 25.4311 25.9982 24.8362 25.9487L21.8618 25.6512C21.0191 25.5768 20.2507 25.4281 19.5814 25.1803C18.8874 24.9324 18.2925 24.5854 17.8216 24.1392C17.3259 23.6931 16.954 23.123 16.6566 22.4537C16.384 21.7845 16.2352 20.9913 16.2352 20.0494C16.2352 18.9836 16.4583 18.0417 16.9045 17.2485C17.3506 16.4553 17.9455 15.7861 18.6643 15.2656C19.3832 14.7202 20.2011 14.3237 21.143 14.0758C22.0601 13.8031 23.002 13.6792 23.9687 13.6792C25.5551 13.6792 26.9679 13.8279 28.232 14.1501C29.4962 14.4724 30.6116 15.092 31.5782 16.0587L27.9842 19.628C27.5132 19.1571 26.8935 18.8349 26.1499 18.6861C25.4063 18.5374 24.6627 18.463 23.8943 18.463C23.1755 18.463 22.6798 18.587 22.4071 18.8596C22.1345 19.1323 21.9858 19.3554 21.9858 19.5784C21.9858 19.628 21.9858 19.7024 22.0106 19.8015C22.0106 19.9007 22.0601 20.0246 22.1345 20.1238C22.2089 20.2229 22.3328 20.3221 22.4815 20.4212C22.655 20.5204 22.9029 20.5947 23.2251 20.6443L26.1995 20.9417C27.191 21.0409 28.0585 21.264 28.8021 21.5862C29.5457 21.9332 30.1406 22.3546 30.6116 22.8751C31.0825 23.3956 31.4295 23.9905 31.6526 24.6597C31.8757 25.3538 31.9996 26.0726 31.9996 26.841Z" fill="white"/>
<path d="M23.448 34.4014H21.7129V36.6074H23.448V34.4014Z" fill="white"/>
<path d="M26.695 34.4014H24.96V36.6074H26.695V34.4014Z" fill="white"/>
<path d="M23.448 10.457H21.7129V12.6631H23.448V10.457Z" fill="white"/>
<path d="M26.695 10.457H24.96V12.6631H26.695V10.457Z" fill="white"/>
<defs>
<radialGradient id="paint0_radial_594_1654" cx="0" cy="0" r="1" gradientUnits="userSpaceOnUse" gradientTransform="translate(36 8) rotate(120.069) scale(43.909)">
<stop stop-color="#9AE769"/>
<stop offset="1" stop-color="#7CC051"/>
</radialGradient>
</defs>
</svg>
