<svg width="25" height="30" viewBox="0 0 25 30" fill="none" xmlns="http://www.w3.org/2000/svg">
<path d="M12.5 3.90465L5.625 10.7392C4.26543 12.0909 3.33957 13.813 2.96452 15.6878C2.58947 17.5626 2.78206 19.5059 3.51794 21.2719C4.25382 23.0378 5.49994 24.5473 7.09873 25.6092C8.69752 26.6712 10.5772 27.238 12.5 27.238C14.4228 27.238 16.3025 26.6712 17.9013 25.6092C19.5001 24.5473 20.7462 23.0378 21.4821 21.2719C22.2179 19.5059 22.4105 17.5626 22.0355 15.6878C21.6604 13.813 20.7346 12.0909 19.375 10.7392L12.5 3.90465ZM12.5 0L21.3389 8.78685C23.087 10.5247 24.2775 12.7389 24.7598 15.1494C25.2421 17.5599 24.9946 20.0584 24.0485 22.329C23.1024 24.5996 21.5002 26.5404 19.4446 27.9058C17.389 29.2712 14.9723 30 12.5 30C10.0277 30 7.611 29.2712 5.55539 27.9058C3.49978 26.5404 1.89763 24.5996 0.951526 22.329C0.00542617 20.0584 -0.242124 17.5599 0.240178 15.1494C0.722481 12.7389 1.91298 10.5247 3.66112 8.78685L12.5 0ZM12.5 24.4773V10.6701C14.3418 10.6701 16.1081 11.3975 17.4105 12.6921C18.7128 13.9868 19.4444 15.7428 19.4444 17.5737C19.4444 19.4046 18.7128 21.1606 17.4105 22.4553C16.1081 23.7499 14.3418 24.4773 12.5 24.4773Z" fill="#FEFEFC"/>
</svg>
