<svg width="25" height="22" viewBox="0 0 25 22" fill="none" xmlns="http://www.w3.org/2000/svg">
<path d="M9.785 2.44444L7.285 4.88889H2.5V19.5556H22.5V4.88889H17.715L15.215 2.44444H9.785ZM8.75 0H16.25L18.75 2.44444H23.75C24.0815 2.44444 24.3995 2.57321 24.6339 2.80243C24.8683 3.03164 25 3.34251 25 3.66667V20.7778C25 21.1019 24.8683 21.4128 24.6339 21.642C24.3995 21.8712 24.0815 22 23.75 22H1.25C0.918479 22 0.600537 21.8712 0.366116 21.642C0.131696 21.4128 0 21.1019 0 20.7778V3.66667C0 3.34251 0.131696 3.03164 0.366116 2.80243C0.600537 2.57321 0.918479 2.44444 1.25 2.44444H6.25L8.75 0ZM12.5 18.3333C10.6766 18.3333 8.92795 17.6251 7.63864 16.3644C6.34933 15.1038 5.625 13.394 5.625 11.6111C5.625 9.82827 6.34933 8.11844 7.63864 6.85778C8.92795 5.59712 10.6766 4.88889 12.5 4.88889C14.3234 4.88889 16.072 5.59712 17.3614 6.85778C18.6507 8.11844 19.375 9.82827 19.375 11.6111C19.375 13.394 18.6507 15.1038 17.3614 16.3644C16.072 17.6251 14.3234 18.3333 12.5 18.3333ZM12.5 15.8889C13.6603 15.8889 14.7731 15.4382 15.5936 14.636C16.4141 13.8337 16.875 12.7456 16.875 11.6111C16.875 10.4766 16.4141 9.3885 15.5936 8.58627C14.7731 7.78403 13.6603 7.33333 12.5 7.33333C11.3397 7.33333 10.2269 7.78403 9.40641 8.58627C8.58594 9.3885 8.125 10.4766 8.125 11.6111C8.125 12.7456 8.58594 13.8337 9.40641 14.636C10.2269 15.4382 11.3397 15.8889 12.5 15.8889Z" fill="#57C876"/>
</svg>
