<svg width="25" height="21" viewBox="0 0 25 21" fill="none" xmlns="http://www.w3.org/2000/svg">
<path d="M16.6667 21L10.9976 10.815L15.4762 3.5L25 21H16.6667ZM7.14286 8.16667L14.2857 21H0L7.14286 8.16667ZM4.16667 5.83333C3.37733 5.83333 2.62033 5.52604 2.06218 4.97906C1.50404 4.43208 1.19048 3.69021 1.19048 2.91667C1.19048 2.14312 1.50404 1.40125 2.06218 0.854272C2.62033 0.307291 3.37733 0 4.16667 0C4.956 0 5.71301 0.307291 6.27115 0.854272C6.8293 1.40125 7.14286 2.14312 7.14286 2.91667C7.14286 3.69021 6.8293 4.43208 6.27115 4.97906C5.71301 5.52604 4.956 5.83333 4.16667 5.83333Z" fill="white"/>
</svg>
