<svg width="11" height="13" viewBox="0 0 11 13" fill="none" xmlns="http://www.w3.org/2000/svg">
<path d="M9.78065 12.8499H0.843756C0.378831 12.8499 0 12.4711 0 12.0062V5.62206C0 5.15713 0.378831 4.77832 0.843756 4.77832H9.78065C10.2456 4.77832 10.6244 5.15713 10.6244 5.62206V12.0062C10.6244 12.4711 10.2456 12.8499 9.78065 12.8499ZM1.08914 11.7651H9.53527V5.87175H1.08914V11.7651ZM9.78065 5.86744H9.78496H9.78065Z" fill="black"/>
<path d="M8.06827 5.86753C7.76693 5.86753 7.52585 5.62215 7.52585 5.32512V3.30182C7.52585 2.07924 6.53142 1.08914 5.31315 1.08914C4.09056 1.08914 3.10045 2.08355 3.10045 3.30182V5.32512C3.10045 5.62646 2.85507 5.86753 2.55804 5.86753C2.2567 5.86753 2.01562 5.62215 2.01562 5.32512V3.30182C2.01562 1.48087 3.4965 0 5.31746 0C7.13841 0 8.61929 1.48087 8.61929 3.30182V5.32512C8.61499 5.62646 8.36961 5.86753 8.06827 5.86753Z" fill="black"/>
<path d="M6.34456 7.72276C6.52967 8.29961 6.22832 8.84633 5.75909 9.06157V10.0689C5.75909 10.3143 5.55676 10.5166 5.31138 10.5166C5.06601 10.5166 4.86369 10.3143 4.86369 10.0689V9.06157C4.48916 8.89368 4.22656 8.51055 4.22656 8.07146C4.22656 7.38268 4.86798 6.84456 5.58259 7.01676C5.93559 7.09855 6.23264 7.37407 6.34456 7.72276Z" fill="black"/>
</svg>
