<svg width="24" height="24" viewBox="0 0 24 24" fill="none" xmlns="http://www.w3.org/2000/svg">
<path d="M18.0026 12.3699C14.006 12.655 9.99415 12.655 5.99756 12.3699" stroke="white" stroke-width="1.5" stroke-linecap="round" stroke-linejoin="round"/>
<path d="M21.0041 11.9998C21.0041 16.9725 16.973 21.0036 12.0003 21.0036C7.0277 21.0036 2.99658 16.9725 2.99658 11.9998C2.99658 7.02721 7.0277 2.99609 12.0003 2.99609" stroke="white" stroke-width="1.5" stroke-linecap="round" stroke-linejoin="round"/>
<path fill-rule="evenodd" clip-rule="evenodd" d="M19.6613 2.38601L20.2116 3.39174C20.3034 3.55937 20.4412 3.6972 20.6089 3.78891L21.6144 4.33908C21.8549 4.47063 22.0044 4.72288 22.0044 4.99695C22.0044 5.27103 21.8549 5.52327 21.6144 5.65483L20.61 6.20444C20.4424 6.29611 20.3047 6.43382 20.2129 6.6013L19.6611 7.60881C19.5295 7.84912 19.2773 7.99845 19.0033 7.99845C18.7293 7.99845 18.4771 7.8489 18.3456 7.60853L17.7956 6.60326C17.7039 6.43574 17.5662 6.29796 17.3987 6.20623L16.3916 5.65469C16.1513 5.52306 16.002 5.27084 16.002 4.99684C16.002 4.72283 16.1515 4.47067 16.3919 4.33914L17.3984 3.7884C17.566 3.69668 17.7038 3.55885 17.7956 3.39123L18.3456 2.38604C18.4771 2.14561 18.7293 1.99609 19.0034 1.99609C19.2775 1.99609 19.5297 2.14559 19.6613 2.38601Z" stroke="white" stroke-width="1.5" stroke-linecap="round" stroke-linejoin="round"/>
<path fill-rule="evenodd" clip-rule="evenodd" d="M14.183 9.49902C12.8734 9.49902 12.8734 10.0733 12.0001 10.0733C11.1267 10.0733 11.1267 9.49902 9.81715 9.49902C7.63424 9.49902 7.71627 12.0711 5.99756 12.3702C7.71227 12.9295 7.71227 15.5015 12.0001 15.5015C16.2878 15.5015 16.2878 12.9295 18.0026 12.3702C16.2878 12.0711 16.3659 9.49902 14.183 9.49902Z" stroke="white" stroke-width="1.5" stroke-linecap="round" stroke-linejoin="round"/>
</svg>
