<svg width="19" height="29" viewBox="0 0 19 29" fill="none" xmlns="http://www.w3.org/2000/svg">
<path fill-rule="evenodd" clip-rule="evenodd" d="M9.20006 0.800049H7.3334V3.17338H9.20006V0.800049ZM18.3999 18.4267C18.3999 19.6534 18.1599 20.72 17.6799 21.6C17.1999 22.48 16.5332 23.2 15.7332 23.7867C14.9066 24.3734 13.9732 24.8 12.8799 25.0667C11.8132 25.3334 10.6666 25.4667 9.43989 25.4667C8.66656 25.4667 7.89324 25.44 7.11991 25.3867C6.34657 25.3334 5.57323 25.2267 4.82656 25.0134C4.0799 24.8267 3.33324 24.5334 2.58657 24.1334C1.83991 23.7334 1.1199 23.1734 0.399902 22.4534L4.4799 18.3734C4.90657 18.8 5.38656 19.1467 5.83989 19.3867C6.29323 19.6267 6.77324 19.7867 7.25324 19.92C7.70657 20.0267 8.1599 20.1067 8.53324 20.1067C8.75344 20.1067 8.9494 20.1148 9.12556 20.122C9.2694 20.128 9.40004 20.1334 9.51991 20.1334C9.73788 20.1334 9.97784 20.1114 10.2398 20.0874L10.3199 20.08C10.6399 20.0534 10.9332 19.9734 11.1999 19.8667C11.4932 19.76 11.7332 19.6267 11.9199 19.44C12.1066 19.2534 12.2132 19.04 12.2132 18.7734C12.2132 18.48 12.1066 18.2134 11.9199 17.9467C11.7332 17.68 11.3332 17.52 10.6932 17.4667L7.49323 17.1467C6.58656 17.0667 5.75989 16.9067 5.03989 16.64C4.29323 16.3734 3.65323 16 3.14657 15.52C2.61323 15.04 2.21323 14.4267 1.89323 13.7067C1.5999 12.9867 1.43989 12.1334 1.43989 11.12C1.43989 9.97337 1.6799 8.96003 2.1599 8.1067C2.6399 7.25336 3.27991 6.53336 4.05324 5.97336C4.82657 5.3867 5.70657 4.96003 6.71991 4.69337C7.70657 4.40003 8.7199 4.2667 9.7599 4.2667C11.4666 4.2667 12.9866 4.4267 14.3466 4.77336C15.7066 5.12003 16.9066 5.7867 17.9466 6.8267L14.0799 10.6667C13.5732 10.16 12.9066 9.81337 12.1066 9.65337C11.3066 9.49337 10.5066 9.41336 9.6799 9.41336C8.90657 9.41336 8.37323 9.5467 8.0799 9.84003C7.78657 10.1334 7.62656 10.3734 7.62656 10.6134C7.62656 10.6667 7.62657 10.7467 7.65324 10.8534C7.65324 10.96 7.70657 11.0934 7.78657 11.2C7.86657 11.3067 7.9999 11.4134 8.1599 11.52C8.34656 11.6267 8.61323 11.7067 8.9599 11.76L12.1599 12.08C13.2266 12.1867 14.1599 12.4267 14.9599 12.7734C15.7599 13.1467 16.3999 13.6 16.9066 14.16C17.4132 14.72 17.7866 15.36 18.0266 16.08C18.2666 16.8267 18.3999 17.6 18.3999 18.4267ZM9.20016 26.5602H7.3335V28.9335H9.20016V26.5602ZM10.8267 26.5602H12.6933V28.9335H10.8267V26.5602ZM10.8268 0.800049H12.6934V3.17338H10.8268V0.800049Z" fill="white"/>
</svg>
