<svg width="20" height="14" viewBox="0 0 20 14" fill="none" xmlns="http://www.w3.org/2000/svg">
<path d="M16.625 4.375V1.75H14.875V4.375H12.25V6.125H14.875V8.75H16.625V6.125H19.25V4.375H16.625ZM7 7C8.93375 7 10.5 5.43375 10.5 3.5C10.5 1.56625 8.93375 0 7 0C5.06625 0 3.5 1.56625 3.5 3.5C3.5 5.43375 5.06625 7 7 7ZM7 1.75C7.9625 1.75 8.75 2.5375 8.75 3.5C8.75 4.4625 7.9625 5.25 7 5.25C6.0375 5.25 5.25 4.4625 5.25 3.5C5.25 2.5375 6.0375 1.75 7 1.75ZM12.5913 9.24C11.1213 8.4875 9.21375 7.875 7 7.875C4.78625 7.875 2.87875 8.4875 1.40875 9.24C0.53375 9.68625 0 10.5875 0 11.5675V14H14V11.5675C14 10.5875 13.4663 9.68625 12.5913 9.24ZM12.25 12.25H1.75V11.5675C1.75 11.235 1.925 10.9375 2.205 10.7975C3.24625 10.2638 4.92625 9.625 7 9.625C9.07375 9.625 10.7537 10.2638 11.795 10.7975C12.075 10.9375 12.25 11.235 12.25 11.5675V12.25Z" fill="black"/>
</svg>
