<svg width="11" height="11" viewBox="0 0 11 11" fill="none" xmlns="http://www.w3.org/2000/svg">
<path d="M9.27588 5.11328H5.85449V1.77783C5.85449 1.56406 5.68154 1.39111 5.46777 1.39111C5.254 1.39111 5.08105 1.56406 5.08105 1.77783V5.11328H1.73486C1.52109 5.11328 1.34814 5.28623 1.34814 5.5C1.34814 5.71377 1.52109 5.88672 1.73486 5.88672H5.08105V9.23291C5.08105 9.44668 5.254 9.61963 5.46777 9.61963C5.68154 9.61963 5.85449 9.44668 5.85449 9.23291V5.88672H9.27588C9.48965 5.88672 9.6626 5.71377 9.6626 5.5C9.6626 5.28623 9.48965 5.11328 9.27588 5.11328Z" fill="#9AE769" stroke="#9AE769"/>
</svg>
