<svg width="27" height="27" viewBox="0 0 27 27" fill="none" xmlns="http://www.w3.org/2000/svg">
<path d="M6.01425 22.1538L0 27V1.38462C0 1.01739 0.142232 0.66521 0.395406 0.405544C0.64858 0.145879 0.991958 0 1.35 0H25.65C26.008 0 26.3514 0.145879 26.6046 0.405544C26.8578 0.66521 27 1.01739 27 1.38462V20.7692C27 21.1365 26.8578 21.4886 26.6046 21.7483C26.3514 22.008 26.008 22.1538 25.65 22.1538H6.01425ZM5.08005 19.3846H24.3V2.76923H2.7V21.3023L5.08005 19.3846ZM6.75 9.69231H9.45C9.45 10.794 9.87669 11.8505 10.6362 12.6295C11.3957 13.4085 12.4259 13.8462 13.5 13.8462C14.5741 13.8462 15.6043 13.4085 16.3638 12.6295C17.1233 11.8505 17.55 10.794 17.55 9.69231H20.25C20.25 11.5284 19.5388 13.2893 18.273 14.5877C17.0071 15.886 15.2902 16.6154 13.5 16.6154C11.7098 16.6154 9.9929 15.886 8.72703 14.5877C7.46116 13.2893 6.75 11.5284 6.75 9.69231Z" fill="#FEFEFC"/>
</svg>
