<svg width="28" height="11" viewBox="0 0 28 11" fill="none" xmlns="http://www.w3.org/2000/svg">
<path d="M3.61015 10.7936L0.823581 8.007C0.623972 7.80757 0.507432 7.53986 0.497479 7.25788C0.487525 6.97591 0.584899 6.70065 0.769951 6.48767C1.09067 6.11967 1.35938 5.82574 1.57688 5.60824C8.54055 -1.35543 19.8299 -1.35512 26.794 5.60894C27.0115 5.82645 27.281 6.1196 27.601 6.48841C27.786 6.70141 27.8834 6.97667 27.8735 7.25864C27.8636 7.54062 27.747 7.80833 27.5474 8.00774L24.761 10.7942C24.6634 10.892 24.5328 10.9501 24.3948 10.957C24.2567 10.964 24.121 10.9195 24.014 10.832C23.8146 10.6688 23.6538 10.5412 23.5285 10.4474C22.2789 9.51102 20.895 8.76894 19.4236 8.24629C19.1911 8.16354 19.0516 7.92634 19.0926 7.68363L19.5779 4.76791C16.1153 3.38481 12.2538 3.38471 8.79131 4.76761L9.27525 7.67863C9.295 7.79758 9.27237 7.91969 9.21131 8.02366C9.15025 8.12763 9.05464 8.20688 8.94114 8.24758C7.47077 8.77092 6.08793 9.51345 4.83947 10.45C4.71418 10.5438 4.55264 10.6707 4.35563 10.833C4.24856 10.9202 4.11295 10.9645 3.97507 10.9573C3.83719 10.9502 3.70687 10.8921 3.60936 10.7944L3.61015 10.7936Z" fill="white"/>
</svg>
