<svg width="22" height="22" viewBox="0 0 22 22" fill="none" xmlns="http://www.w3.org/2000/svg">
<path d="M15.91 5.03C17.91 6.42 19.29 8.63 19.57 11.18M2.44 11.23C2.56572 10.0072 2.95211 8.8255 3.57311 7.76462C4.19411 6.70375 5.03531 5.78831 6.04 5.08M7.14 19.8C8.3 20.39 9.62 20.72 11.01 20.72C12.35 20.72 13.61 20.42 14.74 19.87M11.01 6.56C11.7473 6.56 12.4544 6.26711 12.9758 5.74576C13.4971 5.22441 13.79 4.5173 13.79 3.78C13.79 3.0427 13.4971 2.33559 12.9758 1.81424C12.4544 1.29289 11.7473 1 11.01 1C10.2727 1 9.56559 1.29289 9.04424 1.81424C8.52289 2.33559 8.23 3.0427 8.23 3.78C8.23 4.5173 8.52289 5.22441 9.04424 5.74576C9.56559 6.26711 10.2727 6.56 11.01 6.56V6.56ZM3.78 18.78C4.5173 18.78 5.22441 18.4871 5.74576 17.9658C6.26711 17.4444 6.56 16.7373 6.56 16C6.56 15.2627 6.26711 14.5556 5.74576 14.0342C5.22441 13.5129 4.5173 13.22 3.78 13.22C3.0427 13.22 2.33559 13.5129 1.81424 14.0342C1.29289 14.5556 1 15.2627 1 16C1 16.7373 1.29289 17.4444 1.81424 17.9658C2.33559 18.4871 3.0427 18.78 3.78 18.78V18.78ZM18.12 18.78C18.8573 18.78 19.5644 18.4871 20.0858 17.9658C20.6071 17.4444 20.9 16.7373 20.9 16C20.9 15.2627 20.6071 14.5556 20.0858 14.0342C19.5644 13.5129 18.8573 13.22 18.12 13.22C17.3827 13.22 16.6756 13.5129 16.1542 14.0342C15.6329 14.5556 15.34 15.2627 15.34 16C15.34 16.7373 15.6329 17.4444 16.1542 17.9658C16.6756 18.4871 17.3827 18.78 18.12 18.78V18.78Z" stroke="black" stroke-width="1.5" stroke-linecap="round" stroke-linejoin="round"/>
</svg>
