<?xml version="1.0" encoding="UTF-8"?>
<svg width="50px" height="50px" viewBox="0 0 50 50" version="1.1" xmlns="http://www.w3.org/2000/svg" xmlns:xlink="http://www.w3.org/1999/xlink">
    <!-- Generator: Sketch 64 (93537) - https://sketch.com -->
    <title>Group</title>
    <desc>Created with Sketch.</desc>
    <g id="Test-Labs" stroke="none" stroke-width="1" fill="none" fill-rule="evenodd">
        <g id="Artboard" transform="translate(-445.000000, -215.000000)">
            <g id="Group" transform="translate(445.000000, 215.000000)">
                <circle id="Oval" fill="#9AE769" cx="25" cy="25" r="25"></circle>
                <g id="KwiksLogoWhite" transform="translate(18.000000, 14.000000)" fill="#FFFFFF">
                    <path d="M0,18.817095 L0,3.541736 C0,2.473757 0.496232,1.459711 1.39161,0.8771785 C1.9094185,0.53197375 2.5135275,0.34858395 3.106851,0.34858395 C3.354967,0.34858395 3.55993,0.5535475 3.55993,0.8016635 L3.55993,21.53558 C3.55993,21.783685 3.3657525,21.99945 3.1176365,21.99945 C2.5782515,22.01023 2.0388665,21.86998 1.5534255,21.58948 C0.571747,21.028535 0,19.949765 0,18.817095 Z M4.8758765,15.504995 L9.65481,18.417685 L4.8758765,21.43823 L4.8758765,15.504995 Z M4.8758765,6.85344 L9.65481,3.9407885 L4.8758765,0.9202435 L4.8758765,6.85344 Z M11.532015,5.127705 L13.16095,6.1633 C13.89454,6.62717 13.883705,7.69516 13.15017,8.14825 L4.8868105,13.196865 L4.8868105,8.417915 L10.291435,5.1169195 C10.66901,4.879589 11.15444,4.8903745 11.532015,5.127705 Z M9.461155,11.95601 L7.09863,13.40152 L5.54521,14.350875 L10.280985,17.24195 C10.65856,17.479275 11.14399,17.468495 11.521565,17.23117 L13.161335,16.19552 C13.89487,15.73165 13.88409,14.65288 13.1505,14.199845 L9.461155,11.95601 Z M16.968545,8.568945 C17.863945,9.14067 18.40333,10.111585 18.40333,11.17952 C18.40333,12.24751 17.863945,13.218425 16.968545,13.79015 L16.008465,14.39427 L10.744085,11.17952 L16.008465,7.964825 L16.968545,8.568945 Z" id="Shape"></path>
                </g>
            </g>
        </g>
    </g>
</svg>