<svg width="11" height="13" viewBox="0 0 11 13" fill="none" xmlns="http://www.w3.org/2000/svg">
<path d="M5.36225 12.5225C4.69761 12.5225 4.074 12.2313 3.64732 11.7225L1.84212 9.56037C0.656438 8.13673 0 6.33563 0 4.4812V2.74576C0 2.34369 0.299497 1.99905 0.697461 1.94162L1.68622 1.79803C2.63395 1.65854 3.52424 1.26466 4.26273 0.653356L4.8166 0.193854C5.13251 -0.0646178 5.5879 -0.0646178 5.89971 0.193854L6.45358 0.653356C7.19207 1.26466 8.08236 1.65854 9.03009 1.79803L10.0188 1.94162C10.4168 1.99905 10.7163 2.34369 10.7163 2.74576V4.4812C10.7163 6.33563 10.064 8.13673 8.87418 9.56037L7.06899 11.7225C6.65051 12.2313 6.02689 12.5225 5.36225 12.5225ZM1.04209 2.93857V4.4812C1.04209 6.09357 1.61237 7.66081 2.64215 8.89573L4.44735 11.0579C4.67711 11.3328 5.00942 11.4887 5.36636 11.4887C5.7233 11.4887 6.05561 11.3328 6.28536 11.0579L8.09057 8.89573C9.12446 7.66081 9.69063 6.09357 9.69063 4.4812V2.93857L8.89059 2.82371C7.75414 2.6596 6.68744 2.18368 5.80535 1.45339L5.37047 1.09235L4.93558 1.45339C4.04939 2.18368 2.98268 2.6555 1.85033 2.82371L1.04209 2.93857Z" fill="black"/>
<path d="M5.08795 8.02188C4.95667 8.02188 4.82127 7.97264 4.72281 7.87008L3.46327 6.61054C3.26224 6.40951 3.26224 6.0813 3.46327 5.88027C3.66431 5.67923 3.99253 5.67923 4.19356 5.88027L5.45309 7.13978C5.65412 7.34081 5.65412 7.66904 5.45309 7.87008C5.35463 7.97264 5.21924 8.02188 5.08795 8.02188Z" fill="black"/>
<path d="M5.08819 8.02208C4.9569 8.02208 4.82151 7.97285 4.72304 7.87028C4.52201 7.66925 4.52201 7.34102 4.72304 7.13998L7.01646 4.84658C7.21749 4.64554 7.54571 4.64554 7.74674 4.84658C7.94778 5.04761 7.94778 5.37581 7.74674 5.57685L5.45332 7.87028C5.35486 7.97285 5.21948 8.02208 5.08819 8.02208Z" fill="black"/>
</svg>
