<svg width="28" height="25" viewBox="0 0 28 25" fill="none" xmlns="http://www.w3.org/2000/svg">
<path d="M10.9592 2.77778L8.1592 5.55556H2.8V22.2222H25.2V5.55556H19.8408L17.0408 2.77778H10.9592ZM9.8 0H18.2L21 2.77778H26.6C26.9713 2.77778 27.3274 2.92411 27.59 3.18457C27.8525 3.44504 28 3.79831 28 4.16667V23.6111C28 23.9795 27.8525 24.3327 27.59 24.5932C27.3274 24.8537 26.9713 25 26.6 25H1.4C1.0287 25 0.672601 24.8537 0.41005 24.5932C0.1475 24.3327 0 23.9795 0 23.6111V4.16667C0 3.79831 0.1475 3.44504 0.41005 3.18457C0.672601 2.92411 1.0287 2.77778 1.4 2.77778H7L9.8 0ZM10.696 6.29167C12.3453 5.51284 14.2201 5.34108 15.9853 5.80705C17.7505 6.27303 19.2913 7.3464 20.3323 8.83542C21.3734 10.3245 21.847 12.1321 21.6684 13.9356C21.4899 15.7391 20.6709 17.4209 19.3578 18.6806L16.45 13.3333H18.8986L18.9 13.1944C18.9001 12.3836 18.6958 11.5857 18.3057 10.8732C17.9155 10.1607 17.3519 9.55636 16.6662 9.11517C15.9805 8.67399 15.1944 8.40997 14.3796 8.34716C13.5647 8.28435 12.747 8.42474 12.0008 8.75556L10.696 6.29167ZM17.2438 20.125C15.5984 20.8846 13.7355 21.0433 11.9837 20.573C10.2319 20.1027 8.70381 19.0337 7.66911 17.5546C6.6344 16.0755 6.15956 14.2814 6.32838 12.4888C6.4972 10.6962 7.29882 9.02031 8.5918 7.75694L11.55 13.1944H9.1C9.09974 13.9999 9.30124 14.7929 9.6864 15.502C10.0716 16.2111 10.6283 16.8141 11.3066 17.2569C11.9848 17.6996 12.7634 17.9682 13.5722 18.0386C14.3811 18.1089 15.1948 17.9787 15.9404 17.6597L17.2438 20.1236V20.125Z" fill="#FEFEFC"/>
</svg>
