<svg width="83" height="103" viewBox="0 0 83 103" fill="none" xmlns="http://www.w3.org/2000/svg">
<g clip-path="url(#clip0_1942_14007)">
<path d="M61.0793 64.2707C60.7977 64.5513 60.4566 64.763 60.0587 64.908L59.6572 65.0286C59.6572 65.0286 5.5194 86.8719 1.30983 82.6471C-2.89973 78.422 19.1405 24.3641 19.1405 24.3641L19.2626 23.9631C19.409 23.5657 19.6221 23.2254 19.9036 22.9448C23.2713 19.5894 35.2197 26.1197 46.5899 37.5314C57.9601 48.943 64.447 60.9154 61.0793 64.2707Z" fill="url(#paint0_linear_1942_14007)"/>
<path d="M57.7108 65.8051C54.8616 66.9348 49.1567 69.1711 42.4204 71.6743C38.3003 73.2059 33.7941 74.8372 29.3194 76.3747C25.4091 77.7185 21.5223 78.9931 17.9407 80.0671C15.48 77.9991 13.0346 75.7561 10.6389 73.3517C8.24308 70.9473 6.00925 68.4936 3.9502 66.0254C5.03717 62.4479 6.32595 58.5655 7.68406 54.6603C9.23778 50.1911 10.8856 45.6909 12.4321 41.5765C14.9599 34.8493 17.217 29.1527 18.357 26.3076C25.621 30.2467 33.3831 36.0722 40.692 43.4077C48.0011 50.7435 53.7982 58.5268 57.7108 65.8051Z" fill="url(#paint1_linear_1942_14007)"/>
<path d="M61.0788 64.2703C60.7979 64.5518 60.456 64.7624 60.0582 64.9084L59.6572 65.028C59.6572 65.028 58.9572 65.3104 57.7109 65.8046C54.8618 66.9344 49.1569 69.1707 42.4206 71.6739C38.3005 73.2054 33.7943 74.8368 29.3196 76.3743C25.4303 73.4409 21.5321 70.0523 17.7549 66.2613C13.9778 62.4703 10.6034 58.5597 7.68408 54.6598C9.23781 50.1907 10.8856 45.6905 12.4322 41.5761C14.9599 34.8489 17.217 29.1523 18.3571 26.3072C18.8559 25.0627 19.1408 24.3639 19.1408 24.3639L19.2619 23.9632C19.4095 23.5659 19.6213 23.2248 19.9038 22.9449C23.2716 19.5892 35.2189 26.12 46.5899 37.5307C57.9595 48.9436 64.4466 60.9146 61.0788 64.2703Z" fill="url(#paint2_linear_1942_14007)"/>
<path d="M61.0786 64.2701C60.7977 64.5516 60.4558 64.7622 60.058 64.9082L59.657 65.0278C59.657 65.0278 58.957 65.3102 57.7107 65.8045C54.8616 66.9342 49.1567 69.1705 42.4204 71.6737C36.9373 68.0627 31.3207 63.4866 25.9497 58.096C20.5788 52.7054 16.0231 47.0722 12.4321 41.5761C14.9599 34.8489 17.217 29.1523 18.357 26.3072C18.8558 25.0627 19.1408 24.3639 19.1408 24.3639L19.2619 23.9632C19.4095 23.5659 19.6212 23.2248 19.9038 22.9449C23.2716 19.5892 35.2189 26.12 46.5899 37.5307C57.9593 48.9434 64.4464 60.9145 61.0786 64.2701Z" fill="url(#paint3_linear_1942_14007)"/>
<path d="M61.0788 64.2711C57.7105 67.6272 45.7622 61.0969 34.392 49.685C23.0219 38.2732 16.5348 26.3015 19.9032 22.9452C23.2715 19.5889 35.2198 26.1194 46.59 37.5312C57.9601 48.9431 64.4472 60.9149 61.0788 64.2711Z" fill="url(#paint4_linear_1942_14007)"/>
<path d="M58.9793 61.1948C56.4909 63.6743 46.413 57.5941 36.4697 47.6146C26.5265 37.6351 20.4831 27.5351 22.9715 25.0557C25.4598 22.5763 35.5378 28.6564 45.4811 38.6359C55.4243 48.6155 61.4679 58.7154 58.9793 61.1948Z" fill="url(#paint5_linear_1942_14007)"/>
<path d="M61.0795 64.2711C64.4472 60.9156 57.9605 48.9436 46.5901 37.5319C39.9229 30.8405 33.0579 25.8287 27.8396 23.5029C28.0434 23.8779 28.2707 24.2496 28.5248 24.6161C28.9376 25.2118 29.421 25.7547 29.9652 26.2442L32.8525 29.1515C32.5197 29.3025 32.2139 29.422 31.9567 29.5126C31.4963 29.6749 31.2268 30.1511 31.3232 30.6295L32.3449 35.7046C32.4352 36.1533 32.7499 36.4941 33.1433 36.643L60.8627 64.4634C60.9384 64.4035 61.0108 64.3396 61.0795 64.2711Z" fill="url(#paint6_linear_1942_14007)"/>
<path d="M42.6478 48.5028L45.4832 51.8923L58.6911 65.1484C59.7006 65.1199 60.5117 64.8362 61.0787 64.2712C64.0221 61.3383 59.4397 51.8265 50.6495 41.8584C47.9104 43.0023 45.2991 44.4998 42.8877 46.3409C42.2065 46.8607 42.0979 47.8455 42.6478 48.5028Z" fill="url(#paint7_linear_1942_14007)"/>
<path d="M45.4837 51.8926L42.6483 48.5031C42.0984 47.8458 42.207 46.8612 42.8881 46.341C51.6752 39.6324 63.1049 37.4534 73.7795 40.5236C76.4661 41.2961 79.0386 42.3795 81.4466 43.7509C82.1915 44.1752 82.4302 45.1372 81.9726 45.8621L79.6138 49.5989C79.1861 50.2764 78.3038 50.4977 77.605 50.1062C75.7567 49.0708 73.7857 48.2491 71.728 47.6573C63.3799 45.2563 54.4452 46.9316 47.5418 52.1281C46.9018 52.6097 45.9975 52.5068 45.4837 51.8926Z" fill="url(#paint8_linear_1942_14007)"/>
<path d="M20.9826 16.7039L18.4081 14.0549C17.2412 12.8541 16.8898 10.9214 17.5713 9.4518C18.3624 7.74542 20.2609 7.2453 21.7901 8.34041C23.1072 9.28368 23.7536 11.1387 23.3297 12.7585L22.3945 16.332C22.2293 16.9635 21.4376 17.1721 20.9826 16.7039Z" fill="url(#paint9_linear_1942_14007)"/>
<path d="M16.4284 19.5799L12.7728 19.0487C11.1159 18.808 9.65936 17.4898 9.30393 15.9094C8.8912 14.0743 10.0916 12.5207 11.9713 12.4571C13.5903 12.4022 15.2334 13.4788 15.8845 15.0215L17.3211 18.4246C17.5751 19.026 17.0744 19.6739 16.4284 19.5799Z" fill="url(#paint10_linear_1942_14007)"/>
<path d="M65.3729 62.0734L69.0518 61.7404C70.7192 61.5895 72.4422 62.533 73.1552 63.9876C73.9831 65.6764 73.1767 67.4664 71.3632 67.9654C69.8012 68.3951 67.9531 67.7297 66.9611 66.3808L64.773 63.4046C64.3865 62.8786 64.7227 62.1321 65.3729 62.0734Z" fill="url(#paint11_linear_1942_14007)"/>
<path d="M66.0043 56.7238L68.7181 54.2177C69.9481 53.0817 71.8892 52.7798 73.341 53.4984C75.0267 54.3328 75.4783 56.2434 74.3445 57.7442C73.368 59.0369 71.4971 59.6358 69.8887 59.1708L66.34 58.1449C65.7131 57.9636 65.5248 57.1666 66.0043 56.7238Z" fill="url(#paint12_linear_1942_14007)"/>
<path d="M33.9747 36.6644C33.2549 36.8965 32.4942 36.4457 32.345 35.7042L31.3232 30.6292C31.2269 30.1505 31.4964 29.6745 31.9568 29.5123C32.4948 29.3227 33.2425 29.0107 34.0154 28.5355C31.6811 27.7649 29.7817 26.4287 28.525 24.6157C26.1558 21.1976 25.9701 17.3448 28.028 14.3094C30.0644 11.3058 33.8272 9.84045 37.3922 10.6634C41.2894 11.5631 44.027 14.9731 44.7151 19.7855C44.7437 19.9858 44.7691 20.1852 44.7911 20.3837C45.7472 19.8236 46.5197 19.1325 47.0036 18.359C48.2284 16.4014 48.3446 13.4798 47.3001 10.916C46.6371 9.2889 45.6136 8.04455 44.4592 7.41864C43.9443 7.13953 43.6699 6.56032 43.8079 5.9912L44.9784 1.16467C45.1577 0.425478 45.9451 6.25402e-05 46.6555 0.272172C49.9314 1.52677 52.6267 4.31704 54.1743 8.11486C56.1191 12.8878 55.7829 18.3216 53.2966 22.2958C51.3295 25.4401 47.7016 27.7854 43.5067 28.7768C42.5644 30.747 41.1542 32.4778 39.3046 33.8958C37.3295 35.4097 35.2833 36.2426 33.9747 36.6644ZM35.4296 17.8636C34.9442 17.8628 34.4229 18.1045 34.1719 18.4749C33.797 19.0279 34.2953 19.9105 34.6257 20.3871C35.0788 21.0409 36.1337 21.5286 37.4625 21.747C37.4433 21.4512 37.4114 21.1476 37.3668 20.8362C37.1297 19.1781 36.515 18.0791 35.7224 17.8962C35.6282 17.8744 35.5297 17.8638 35.4296 17.8636Z" fill="url(#paint13_radial_1942_14007)"/>
<path d="M50.1117 25.7239L44.7909 20.3838C44.7909 20.3838 45.1307 25.5402 43.5063 28.777C45.9802 28.1925 48.2565 27.1366 50.1117 25.7239Z" fill="url(#paint14_linear_1942_14007)"/>
<path d="M34.6256 20.3869C34.3835 20.0377 34.0528 19.4711 34.0398 18.9754L26.6069 18.9619C26.6185 20.8434 27.2605 22.7913 28.5249 24.6155C29.7816 26.4287 31.6808 27.7648 34.0153 28.5352C34.0153 28.5352 37.8248 27.3796 37.4625 21.7468C36.1335 21.5284 35.0786 21.0407 34.6256 20.3869Z" fill="url(#paint15_linear_1942_14007)"/>
<path d="M50.3871 37.2919C48.6616 38.4163 47.1893 39.8975 46.0745 41.63C45.8237 42.0196 45.2451 42.0187 44.9958 41.6281C43.8872 39.8914 42.4205 38.4049 40.699 37.2742C40.3169 37.0232 40.318 36.4525 40.701 36.203C42.4264 35.0786 43.8986 33.5974 45.0135 31.8648C45.2642 31.4752 45.8429 31.4762 46.0922 31.8668C47.2008 33.6034 48.6677 35.09 50.389 36.2207C50.7711 36.4717 50.77 37.0424 50.3871 37.2919Z" fill="url(#paint16_linear_1942_14007)"/>
<path d="M81.9364 35.0233C80.211 36.1478 78.7386 37.6289 77.6238 39.3615C77.3732 39.7511 76.7944 39.7501 76.5451 39.3595C75.4365 37.6229 73.9698 36.1364 72.2483 35.0056C71.8662 34.7547 71.8673 34.1839 72.2503 33.9344C73.9757 32.81 75.4479 31.3289 76.5629 29.5963C76.8135 29.2067 77.3922 29.2077 77.6415 29.5982C78.7502 31.3349 80.217 32.8214 81.9383 33.9522C82.3205 34.2029 82.3193 34.7737 81.9364 35.0233Z" fill="url(#paint17_linear_1942_14007)"/>
<path d="M67.1615 9.82413C65.4361 10.9485 63.9637 12.4297 62.8489 14.1623C62.5981 14.5519 62.0195 14.5509 61.7702 14.1603C60.6616 12.4237 59.1949 10.9371 57.4734 9.80639C57.0913 9.55544 57.0924 8.98469 57.4754 8.7352C59.2008 7.6108 60.673 6.12965 61.788 4.39707C62.0386 4.00746 62.6173 4.00843 62.8666 4.39902C63.9753 6.13567 65.4421 7.62219 67.1634 8.75294C67.5456 9.00389 67.5444 9.57464 67.1615 9.82413Z" fill="url(#paint18_linear_1942_14007)"/>
<path d="M65.5623 27.201C64.3045 28.0207 63.2313 29.1004 62.4186 30.3633C62.2358 30.6473 61.814 30.6464 61.6324 30.3618C60.8243 29.0958 59.7551 28.0122 58.5002 27.1879C58.2217 27.005 58.2224 26.589 58.5016 26.4071C59.7595 25.5873 60.8326 24.5077 61.6454 23.2448C61.8281 22.9608 62.25 22.9615 62.4316 23.2463C63.2398 24.5123 64.309 25.5958 65.5638 26.4201C65.8424 26.603 65.8416 27.019 65.5623 27.201Z" fill="url(#paint19_linear_1942_14007)"/>
<path d="M70.6859 17.4383C69.428 18.258 68.3549 19.3377 67.5421 20.6006C67.3593 20.8846 66.9375 20.8837 66.7559 20.5991C65.9479 19.3331 64.8786 18.2496 63.6237 17.4252C63.3452 17.2423 63.3459 16.8263 63.6252 16.6444C64.883 15.8247 65.9562 14.745 66.7689 13.4821C66.9517 13.1981 67.3735 13.1988 67.5551 13.4836C68.3633 14.7496 69.4326 15.8331 70.6873 16.6574C70.9658 16.8403 70.965 17.2563 70.6859 17.4383Z" fill="url(#paint20_linear_1942_14007)"/>
</g>
<path d="M30.8277 62.9033C20.6203 62.9033 12.3206 71.2031 12.3206 81.4105C12.3206 91.6179 20.6203 99.9176 30.8277 99.9176C41.0351 99.9176 49.3348 91.6179 49.3348 81.4105C49.3348 71.2031 41.0351 62.9033 30.8277 62.9033Z" fill="#81D237" stroke="white" stroke-width="5"/>
<path d="M38.9409 78.0186L30.2703 86.689C30.0102 86.9491 29.6687 87.08 29.3272 87.08C28.9858 87.08 28.6443 86.9491 28.3842 86.689L24.049 82.3538C23.5273 81.8323 23.5273 80.9892 24.049 80.4677C24.5705 79.946 25.4134 79.946 25.9351 80.4677L29.3272 83.8598L37.0548 76.1325C37.5763 75.6108 38.4192 75.6108 38.9409 76.1325C39.4624 76.654 39.4624 77.4969 38.9409 78.0186Z" fill="#FAFAFA"/>
<defs>
<linearGradient id="paint0_linear_1942_14007" x1="11.4714" y1="40.7913" x2="35.5619" y2="75.4603" gradientUnits="userSpaceOnUse">
<stop stop-color="#FFE548"/>
<stop offset="0.1758" stop-color="#FFDE50"/>
<stop offset="0.4446" stop-color="#FFCA65"/>
<stop offset="0.7709" stop-color="#FFAA87"/>
<stop offset="1" stop-color="#FF90A4"/>
</linearGradient>
<linearGradient id="paint1_linear_1942_14007" x1="30.2366" y1="67.9702" x2="25.5853" y2="84.3463" gradientUnits="userSpaceOnUse">
<stop stop-color="#FBA5C2" stop-opacity="0"/>
<stop offset="0.3857" stop-color="#FCA0BA" stop-opacity="0.386"/>
<stop offset="0.9737" stop-color="#FF91A5" stop-opacity="0.974"/>
<stop offset="1" stop-color="#FF90A4"/>
</linearGradient>
<linearGradient id="paint2_linear_1942_14007" x1="34.9095" y1="58.2027" x2="29.1498" y2="78.8654" gradientUnits="userSpaceOnUse">
<stop stop-color="#FBA5C2" stop-opacity="0"/>
<stop offset="0.3857" stop-color="#FCA0BA" stop-opacity="0.386"/>
<stop offset="0.9737" stop-color="#FF91A5" stop-opacity="0.974"/>
<stop offset="1" stop-color="#FF90A4"/>
</linearGradient>
<linearGradient id="paint3_linear_1942_14007" x1="38.734" y1="46.9804" x2="31.539" y2="70.4994" gradientUnits="userSpaceOnUse">
<stop stop-color="#FBA5C2" stop-opacity="0"/>
<stop offset="0.3857" stop-color="#FCA0BA" stop-opacity="0.386"/>
<stop offset="0.9737" stop-color="#FF91A5" stop-opacity="0.974"/>
<stop offset="1" stop-color="#FF90A4"/>
</linearGradient>
<linearGradient id="paint4_linear_1942_14007" x1="42.8276" y1="38.3433" x2="35.2055" y2="55.4835" gradientUnits="userSpaceOnUse">
<stop stop-color="#FFE548"/>
<stop offset="0.1758" stop-color="#FFDE50"/>
<stop offset="0.4446" stop-color="#FFCA65"/>
<stop offset="0.7709" stop-color="#FFAA87"/>
<stop offset="1" stop-color="#FF90A4"/>
</linearGradient>
<linearGradient id="paint5_linear_1942_14007" x1="35.6386" y1="51.2956" x2="46.3935" y2="34.8218" gradientUnits="userSpaceOnUse">
<stop stop-color="#FFD00D" stop-opacity="0"/>
<stop offset="1" stop-color="#DB722B"/>
</linearGradient>
<linearGradient id="paint6_linear_1942_14007" x1="45.6024" y1="44.072" x2="38.8806" y2="23.4393" gradientUnits="userSpaceOnUse">
<stop stop-color="#FFD00D" stop-opacity="0"/>
<stop offset="1" stop-color="#DB722B"/>
</linearGradient>
<linearGradient id="paint7_linear_1942_14007" x1="53.591" y1="55.4528" x2="48.1653" y2="46.5344" gradientUnits="userSpaceOnUse">
<stop stop-color="#A34A9E" stop-opacity="0"/>
<stop offset="1" stop-color="#343168"/>
</linearGradient>
<linearGradient id="paint8_linear_1942_14007" x1="62.1332" y1="52.6648" x2="62.3806" y2="39.0679" gradientUnits="userSpaceOnUse">
<stop stop-color="#A34A9E"/>
<stop offset="1" stop-color="#343168"/>
</linearGradient>
<linearGradient id="paint9_linear_1942_14007" x1="19.6697" y1="11.778" x2="22.6587" y2="13.0787" gradientUnits="userSpaceOnUse">
<stop stop-color="#3FA9F5"/>
<stop offset="1" stop-color="#666AD6"/>
</linearGradient>
<linearGradient id="paint10_linear_1942_14007" x1="12.4553" y1="16.445" x2="15.616" y2="15.6554" gradientUnits="userSpaceOnUse">
<stop stop-color="#A34A9E"/>
<stop offset="1" stop-color="#343168"/>
</linearGradient>
<linearGradient id="paint11_linear_1942_14007" x1="69.7331" y1="64.2238" x2="61.916" y2="68.9367" gradientUnits="userSpaceOnUse">
<stop stop-color="#FF4974"/>
<stop offset="0.4497" stop-color="#FE4773"/>
<stop offset="0.6292" stop-color="#FC406D"/>
<stop offset="0.7605" stop-color="#F73464"/>
<stop offset="0.8683" stop-color="#F12257"/>
<stop offset="0.9606" stop-color="#E80C46"/>
<stop offset="1" stop-color="#E4003D"/>
</linearGradient>
<linearGradient id="paint12_linear_1942_14007" x1="71.1418" y1="54.5372" x2="67.492" y2="64.9771" gradientUnits="userSpaceOnUse">
<stop stop-color="#C4F8B6"/>
<stop offset="1" stop-color="#3B8EAC"/>
</linearGradient>
<radialGradient id="paint13_radial_1942_14007" cx="0" cy="0" r="1" gradientUnits="userSpaceOnUse" gradientTransform="translate(27.7422 6.26004) rotate(0.114591) scale(32.6725 32.6724)">
<stop stop-color="#FF4974"/>
<stop offset="0.4497" stop-color="#FE4773"/>
<stop offset="0.6292" stop-color="#FC406D"/>
<stop offset="0.7605" stop-color="#F73464"/>
<stop offset="0.8683" stop-color="#F12257"/>
<stop offset="0.9606" stop-color="#E80C46"/>
<stop offset="1" stop-color="#E4003D"/>
</radialGradient>
<linearGradient id="paint14_linear_1942_14007" x1="51.0099" y1="29.5547" x2="39.2328" y2="21.036" gradientUnits="userSpaceOnUse">
<stop stop-color="#E4003D" stop-opacity="0"/>
<stop offset="0.3434" stop-color="#CD0E2D" stop-opacity="0.343"/>
<stop offset="1" stop-color="#972E07"/>
</linearGradient>
<linearGradient id="paint15_linear_1942_14007" x1="33.1362" y1="23.4709" x2="36.4293" y2="26.5291" gradientUnits="userSpaceOnUse">
<stop stop-color="#E4003D" stop-opacity="0"/>
<stop offset="0.3434" stop-color="#CD0E2D" stop-opacity="0.343"/>
<stop offset="1" stop-color="#972E07"/>
</linearGradient>
<linearGradient id="paint16_linear_1942_14007" x1="43.8649" y1="34.5166" x2="49.2939" y2="41.7854" gradientUnits="userSpaceOnUse">
<stop stop-color="#3FA9F5"/>
<stop offset="1" stop-color="#666AD6"/>
</linearGradient>
<linearGradient id="paint17_linear_1942_14007" x1="75.4147" y1="32.2535" x2="80.8437" y2="39.5223" gradientUnits="userSpaceOnUse">
<stop stop-color="#3FA9F5"/>
<stop offset="1" stop-color="#666AD6"/>
</linearGradient>
<linearGradient id="paint18_linear_1942_14007" x1="60.6444" y1="7.05182" x2="66.0732" y2="14.3206" gradientUnits="userSpaceOnUse">
<stop stop-color="#A34A9E"/>
<stop offset="1" stop-color="#343168"/>
</linearGradient>
<linearGradient id="paint19_linear_1942_14007" x1="60.8081" y1="25.183" x2="64.7656" y2="30.4818" gradientUnits="userSpaceOnUse">
<stop stop-color="#C4F8B6"/>
<stop offset="1" stop-color="#3B8EAC"/>
</linearGradient>
<linearGradient id="paint20_linear_1942_14007" x1="65.9333" y1="15.4211" x2="69.8908" y2="20.7199" gradientUnits="userSpaceOnUse">
<stop stop-color="#FFE548"/>
<stop offset="0.1758" stop-color="#FFDE50"/>
<stop offset="0.4446" stop-color="#FFCA65"/>
<stop offset="0.7709" stop-color="#FFAA87"/>
<stop offset="1" stop-color="#FF90A4"/>
</linearGradient>
<clipPath id="clip0_1942_14007">
<rect width="83" height="83" fill="white" transform="translate(0 0.189453)"/>
</clipPath>
</defs>
</svg>
