<svg width="24" height="24" viewBox="0 0 24 24" fill="none" xmlns="http://www.w3.org/2000/svg">
<path fill-rule="evenodd" clip-rule="evenodd" d="M21.1828 6.2438C21.45 6.56255 21.4031 7.03599 21.0844 7.29849L13.5281 13.5797C13.0875 13.9454 12.5438 14.1329 12 14.1329C11.4562 14.1329 10.9125 13.9501 10.4719 13.5797L2.91563 7.29849C2.59688 7.03599 2.55469 6.56255 2.81719 6.2438C3.08437 5.92505 3.55312 5.88286 3.87187 6.14536L11.4328 12.4266C11.7656 12.7032 12.2344 12.7032 12.5719 12.4266L20.1281 6.14536C20.4469 5.87817 20.9203 5.92505 21.1828 6.2438ZM22.5 18.1688V5.8313C22.5 5.33911 22.1016 4.94067 21.6094 4.94067H2.39062C1.89844 4.94067 1.5 5.33911 1.5 5.8313V18.1688C1.5 18.661 1.89844 19.0594 2.39062 19.0594H21.6094C22.1016 19.0594 22.5 18.661 22.5 18.1688ZM21.6094 3.44067H2.39062C1.07344 3.44067 0 4.51411 0 5.8313V18.1688C0 19.486 1.07344 20.5594 2.39062 20.5594H21.6094C22.9266 20.5594 24 19.486 24 18.1688V5.8313C24 4.51411 22.9266 3.44067 21.6094 3.44067Z" fill="white"/>
</svg>
