<svg width="50" height="50" viewBox="0 0 50 50" fill="none" xmlns="http://www.w3.org/2000/svg">
<circle opacity="0.2" cx="25" cy="25" r="25" fill="#9AE769"/>
<path d="M33.0029 24V32.0033" stroke="#69BD06" stroke-width="1.5" stroke-linecap="round" stroke-linejoin="round"/>
<path d="M35.0038 23.9992H31.0021" stroke="#69BD06" stroke-width="1.5" stroke-linecap="round" stroke-linejoin="round"/>
<path d="M33.0029 17.9971V20.9983" stroke="#69BD06" stroke-width="1.5" stroke-linecap="round" stroke-linejoin="round"/>
<path fill-rule="evenodd" clip-rule="evenodd" d="M12 20.7722C12 19.7935 12.8546 19 13.9095 19H23.0905C24.1454 19 25 19.7936 25 20.7722V28.2278C25 29.2064 24.1454 30 23.0905 30H13.9095C12.8546 30 12 29.2064 12 28.2278V20.7722ZM13.9095 20.4142C13.6964 20.4142 13.5238 20.5744 13.5238 20.7722V28.2278C13.5238 28.4256 13.6964 28.5858 13.9095 28.5858H23.0905C23.3036 28.5858 23.4762 28.4256 23.4762 28.2278V20.7722C23.4762 20.5744 23.3036 20.4142 23.0905 20.4142H13.9095Z" fill="#69BD06"/>
<path fill-rule="evenodd" clip-rule="evenodd" d="M29.146 28.8766C29.3478 28.7432 29.4687 28.5206 29.4687 28.2825V20.7175C29.4687 20.4794 29.3478 20.2568 29.146 20.1234C28.9442 19.9899 28.6878 19.9629 28.4615 20.0513L23.9928 22.2128C23.714 22.3218 23.5311 22.5856 23.5311 22.879V26.1211C23.5311 26.4145 23.714 26.6783 23.9928 26.7873L28.4615 28.9487C28.6878 29.0371 28.9442 29.0101 29.146 28.8766ZM25 25.6354V23.3647L27.9999 21.7772V27.2228L25 25.6354Z" fill="#69BD06"/>
</svg>
