<svg width="29" height="29" viewBox="0 0 29 29" fill="none" xmlns="http://www.w3.org/2000/svg">
<path d="M9.00006 13.125C8.72811 13.125 8.46227 13.2056 8.23615 13.3567C8.01003 13.5078 7.8338 13.7226 7.72972 13.9738C7.62565 14.2251 7.59842 14.5015 7.65148 14.7682C7.70453 15.035 7.83549 15.28 8.02779 15.4723C8.22008 15.6646 8.46509 15.7955 8.73181 15.8486C8.99853 15.9016 9.275 15.8744 9.52625 15.7703C9.7775 15.6663 9.99224 15.49 10.1433 15.2639C10.2944 15.0378 10.3751 14.7719 10.3751 14.5C10.3751 14.1353 10.2302 13.7856 9.97233 13.5277C9.71447 13.2699 9.36473 13.125 9.00006 13.125ZM14.5001 13.125C14.2281 13.125 13.9623 13.2056 13.7361 13.3567C13.51 13.5078 13.3338 13.7226 13.2297 13.9738C13.1257 14.2251 13.0984 14.5015 13.1515 14.7682C13.2045 15.035 13.3355 15.28 13.5278 15.4723C13.7201 15.6646 13.9651 15.7955 14.2318 15.8486C14.4985 15.9016 14.775 15.8744 15.0262 15.7703C15.2775 15.6663 15.4922 15.49 15.6433 15.2639C15.7944 15.0378 15.8751 14.7719 15.8751 14.5C15.8751 14.1353 15.7302 13.7856 15.4723 13.5277C15.2145 13.2699 14.8647 13.125 14.5001 13.125ZM20.0001 13.125C19.7281 13.125 19.4623 13.2056 19.2361 13.3567C19.01 13.5078 18.8338 13.7226 18.7297 13.9738C18.6257 14.2251 18.5984 14.5015 18.6515 14.7682C18.7045 15.035 18.8355 15.28 19.0278 15.4723C19.2201 15.6646 19.4651 15.7955 19.7318 15.8486C19.9985 15.9016 20.275 15.8744 20.5262 15.7703C20.7775 15.6663 20.9922 15.49 21.1433 15.2639C21.2944 15.0378 21.3751 14.7719 21.3751 14.5C21.3751 14.1353 21.2302 13.7856 20.9723 13.5277C20.7145 13.2699 20.3647 13.125 20.0001 13.125ZM14.5001 0.75C12.6944 0.75 10.9064 1.10565 9.23816 1.79666C7.56993 2.48766 6.05415 3.50048 4.77734 4.77728C2.19872 7.35591 0.75006 10.8533 0.75006 14.5C0.738039 17.6751 1.8374 20.7542 3.85756 23.2038L1.10756 25.9538C0.916768 26.1471 0.787523 26.3926 0.736134 26.6594C0.684745 26.9261 0.713513 27.2021 0.81881 27.4525C0.933014 27.6999 1.11815 27.9078 1.35072 28.0498C1.5833 28.1918 1.85281 28.2615 2.12506 28.25H14.5001C18.1468 28.25 21.6442 26.8013 24.2228 24.2227C26.8014 21.6441 28.2501 18.1467 28.2501 14.5C28.2501 10.8533 26.8014 7.35591 24.2228 4.77728C21.6442 2.19866 18.1468 0.75 14.5001 0.75ZM14.5001 25.5H5.43881L6.71756 24.2212C6.84748 24.0939 6.95084 23.942 7.02165 23.7745C7.09245 23.6069 7.1293 23.4269 7.13006 23.245C7.12489 22.8823 6.97663 22.5364 6.71756 22.2825C4.91712 20.4841 3.79592 18.117 3.54501 15.5846C3.2941 13.0522 3.92898 10.5111 5.3415 8.39434C6.75401 6.27755 8.85677 4.71599 11.2915 3.97571C13.7263 3.23543 16.3424 3.36223 18.6941 4.33451C21.0458 5.30678 22.9877 7.06438 24.1889 9.30785C25.3901 11.5513 25.7763 14.1419 25.2816 16.6381C24.787 19.1344 23.4421 21.3819 21.4762 22.9978C19.5102 24.6137 17.0449 25.498 14.5001 25.5Z" fill="white"/>
</svg>
