<svg width="25" height="30" viewBox="0 0 25 30" fill="none" xmlns="http://www.w3.org/2000/svg">
<path d="M20.3022 7.09729L22.3202 5.02153L24.2841 7.04157L22.266 9.11733C24.2602 11.6848 25.2229 14.9401 24.9564 18.2148C24.69 21.4896 23.2146 24.5351 20.8334 26.7259C18.4521 28.9167 15.3457 30.0865 12.1521 29.995C8.95857 29.9036 5.92024 28.5578 3.66117 26.2341C1.40209 23.9105 0.0937491 20.7853 0.0048456 17.5004C-0.084058 14.2155 1.05322 11.0203 3.18312 8.5709C5.31302 6.12156 8.27385 4.60403 11.4575 4.32997C14.6412 4.05592 17.8061 5.04615 20.3022 7.09729ZM12.4994 27.1434C13.7761 27.1434 15.0404 26.8848 16.2199 26.3822C17.3995 25.8796 18.4712 25.143 19.374 24.2144C20.2768 23.2858 20.993 22.1834 21.4815 20.9701C21.9701 19.7568 22.2216 18.4565 22.2216 17.1432C22.2216 15.83 21.9701 14.5296 21.4815 13.3163C20.993 12.103 20.2768 11.0006 19.374 10.072C18.4712 9.14339 17.3995 8.40678 16.2199 7.90422C15.0404 7.40167 13.7761 7.143 12.4994 7.143C9.9209 7.143 7.44802 8.19659 5.62475 10.072C3.80148 11.9474 2.77718 14.491 2.77718 17.1432C2.77718 19.7954 3.80148 22.339 5.62475 24.2144C7.44802 26.0898 9.9209 27.1434 12.4994 27.1434ZM11.1105 10.0002H13.8883V18.5718H11.1105V10.0002ZM6.94384 0H18.0549V2.8572H6.94384V0Z" fill="#FEFEFC"/>
</svg>
