<svg width="20" height="19" viewBox="0 0 20 19" fill="none" xmlns="http://www.w3.org/2000/svg">
<path d="M9.87076 18.764C8.68076 18.764 7.88676 18.203 7.17776 17.708C6.67476 17.351 6.20176 17.012 5.64476 16.918C5.37956 16.8724 5.11085 16.8503 4.84176 16.852C4.36976 16.852 3.99476 16.923 3.72776 16.977C3.55776 17.007 3.41576 17.035 3.30376 17.035C3.18776 17.035 3.04076 17.003 2.98376 16.807C2.93376 16.647 2.90276 16.495 2.87176 16.348C2.79176 15.978 2.72476 15.751 2.58576 15.728C1.09676 15.501 0.205758 15.158 0.0317585 14.752C0.0177585 14.708 0.000758328 14.662 0.000758328 14.627C-0.00924167 14.502 0.0807585 14.4 0.205758 14.377C1.38676 14.181 2.44776 13.553 3.34376 12.519C4.03976 11.716 4.37876 10.94 4.40976 10.856C4.40976 10.846 4.41876 10.846 4.41876 10.846C4.58876 10.495 4.62376 10.196 4.52076 9.951C4.32976 9.491 3.69576 9.295 3.26376 9.161C3.15276 9.131 3.05876 9.095 2.97876 9.068C2.60876 8.921 1.99276 8.608 2.07376 8.176C2.13176 7.864 2.54576 7.641 2.88476 7.641C2.97876 7.641 3.05876 7.655 3.12476 7.691C3.50476 7.864 3.84776 7.953 4.14176 7.953C4.50776 7.953 4.68176 7.815 4.72576 7.771C4.71645 7.5732 4.70478 7.37552 4.69076 7.178C4.60076 5.813 4.49876 4.119 4.93076 3.148C6.22876 0.241 8.98376 0.0079999 9.79976 0.0079999L10.1558 0H10.2058C11.0208 0 13.7758 0.227 15.0738 3.139C15.5108 4.11 15.4038 5.809 15.3138 7.169L15.3058 7.236C15.2958 7.418 15.2828 7.592 15.2738 7.771C15.3188 7.806 15.4788 7.94 15.8088 7.944C16.0948 7.936 16.4068 7.842 16.7628 7.681C16.8613 7.63839 16.9674 7.61595 17.0748 7.615C17.1998 7.615 17.3248 7.645 17.4318 7.681H17.4408C17.7398 7.793 17.9358 8.002 17.9358 8.221C17.9448 8.426 17.7838 8.738 17.0218 9.046C16.9418 9.076 16.8478 9.113 16.7368 9.139C16.3128 9.269 15.6798 9.474 15.4788 9.929C15.3678 10.169 15.4128 10.477 15.5818 10.824C15.5818 10.834 15.5908 10.834 15.5908 10.834C15.6398 10.958 16.9278 13.883 19.7948 14.36C19.8534 14.3699 19.9064 14.4006 19.9441 14.4466C19.9818 14.4926 20.0016 14.5506 19.9998 14.61C19.9998 14.654 19.9908 14.699 19.9688 14.739C19.7948 15.149 18.9118 15.483 17.4138 15.715C17.2758 15.737 17.2088 15.965 17.1288 16.335C17.0967 16.4892 17.0594 16.6423 17.0168 16.794C16.9728 16.941 16.8788 17.021 16.7188 17.021H16.6958C16.5938 17.021 16.4558 17.008 16.2728 16.972C15.9063 16.8939 15.5325 16.855 15.1578 16.856C14.8948 16.856 14.6228 16.879 14.3558 16.923C13.8028 17.013 13.3258 17.356 12.8218 17.713C12.1048 18.203 11.3068 18.764 10.1248 18.764H9.87076Z" fill="white"/>
</svg>
