<svg width="14" height="14" viewBox="0 0 14 14" fill="none" xmlns="http://www.w3.org/2000/svg">
<path fill-rule="evenodd" clip-rule="evenodd" d="M3.70814 12.9455C3.34896 13.133 2.91444 13.1 2.58771 12.8604C2.26098 12.6208 2.09887 12.2163 2.16971 11.8174L2.74299 8.53146L0.329401 6.2185C0.0343814 5.93715 -0.073739 5.51186 0.0510935 5.12378C0.175926 4.7357 0.511717 4.4532 0.915437 4.39661L4.26654 3.91758L5.77946 0.899532C5.95884 0.53758 6.32789 0.308594 6.73186 0.308594C7.13582 0.308594 7.50487 0.53758 7.68426 0.899532L9.19718 3.91758L12.5483 4.39661C12.952 4.4532 13.2878 4.7357 13.4126 5.12378C13.5375 5.51186 13.4293 5.93715 13.1343 6.2185L10.7207 8.53146L11.294 11.8181C11.3648 12.217 11.2027 12.6215 10.876 12.8611C10.5493 13.1007 10.1148 13.1337 9.75558 12.9462L6.73186 11.3837L3.70814 12.9455Z" fill="#FFD600"/>
</svg>
