<svg width="20" height="18" viewBox="0 0 20 18" fill="none" xmlns="http://www.w3.org/2000/svg">
<path d="M7 0H13L15 2H19C19.2652 2 19.5196 2.10536 19.7071 2.29289C19.8946 2.48043 20 2.73478 20 3V17C20 17.2652 19.8946 17.5196 19.7071 17.7071C19.5196 17.8946 19.2652 18 19 18H1C0.734784 18 0.48043 17.8946 0.292893 17.7071C0.105357 17.5196 0 17.2652 0 17V3C0 2.73478 0.105357 2.48043 0.292893 2.29289C0.48043 2.10536 0.734784 2 1 2H5L7 0ZM12.684 15.368L11.789 13.578C11.1791 13.883 10.5014 14.027 9.82024 13.9963C9.13906 13.9657 8.47701 13.7614 7.89699 13.4029C7.31696 13.0444 6.83821 12.5436 6.5062 11.948C6.17419 11.3524 5.99994 10.6819 6 10H8.001L5.839 5.677C4.80455 6.67169 4.16088 8.00422 4.02476 9.43285C3.88864 10.8615 4.26909 12.2916 5.0971 13.4637C5.9251 14.6359 7.1458 15.4724 8.53777 15.8216C9.92974 16.1708 11.4008 16.0095 12.684 15.367V15.368ZM7.316 4.632L8.211 6.422C8.82087 6.11703 9.49858 5.97303 10.1798 6.00368C10.8609 6.03432 11.523 6.23859 12.103 6.59709C12.683 6.95558 13.1618 7.4564 13.4938 8.05198C13.8258 8.64756 14.0001 9.31813 14 10H11.999L14.16 14.323C15.1945 13.3283 15.8381 11.9958 15.9742 10.5671C16.1104 9.13852 15.7299 7.70842 14.9019 6.53627C14.0739 5.36413 12.8532 4.52758 11.4612 4.17839C10.0693 3.82919 8.59823 3.99048 7.315 4.633L7.316 4.632Z" fill="white"/>
</svg>
