<svg width="18" height="18" viewBox="0 0 18 18" fill="none" xmlns="http://www.w3.org/2000/svg">
<path d="M11.6384 11.9626L9.71873 15.9963C9.68241 16.0726 9.62807 16.1389 9.56041 16.1894C9.49275 16.24 9.41379 16.2733 9.33036 16.2866C9.24693 16.2998 9.16153 16.2925 9.08154 16.2654C9.00155 16.2383 8.92937 16.192 8.87123 16.1308L5.7987 12.8873C5.71662 12.8008 5.60729 12.745 5.48902 12.7295L1.05893 12.15C0.975233 12.139 0.895472 12.1077 0.826529 12.059C0.757587 12.0103 0.701531 11.9455 0.663196 11.8703C0.624862 11.7951 0.6054 11.7117 0.606489 11.6273C0.607577 11.5429 0.629184 11.46 0.669445 11.3858L2.80512 7.46139C2.86189 7.35643 2.88088 7.23516 2.8589 7.11788L2.04089 2.72594C2.02536 2.64281 2.03031 2.55714 2.05533 2.47636C2.08035 2.39558 2.12468 2.32211 2.18448 2.26231C2.24428 2.20251 2.31775 2.15818 2.39853 2.13316C2.47931 2.10814 2.56498 2.10318 2.64811 2.11872L7.04003 2.93673C7.15731 2.95871 7.27859 2.93972 7.38354 2.88295L11.3079 0.747269C11.3822 0.706996 11.4651 0.685407 11.5496 0.684366C11.6341 0.683324 11.7175 0.702862 11.7928 0.741291C11.868 0.77972 11.9327 0.835885 11.9814 0.904936C12.0301 0.973988 12.0612 1.05385 12.0721 1.13762L12.6516 5.56686C12.6672 5.68513 12.7229 5.79446 12.8095 5.87654L16.0529 8.94908C16.1142 9.00722 16.1604 9.0794 16.1875 9.15939C16.2147 9.23939 16.2219 9.32479 16.2087 9.40822C16.1955 9.49165 16.1621 9.5706 16.1115 9.63827C16.061 9.70593 15.9947 9.76027 15.9184 9.79658L11.8848 11.7163C11.7768 11.7676 11.6898 11.8546 11.6384 11.9626V11.9626ZM12.3298 13.6342L13.5563 12.4076L17.237 16.0874L16.0095 17.3148L12.3298 13.6342V13.6342Z" fill="#9AE769"/>
</svg>
