<svg width="14" height="14" viewBox="0 0 14 14" fill="none" xmlns="http://www.w3.org/2000/svg">
<g clip-path="url(#clip0_529_4555)">
<path d="M12.3404 11.5155C13.4117 10.2549 13.9999 8.65437 13.9999 6.99996C13.9999 5.34556 13.4117 3.74505 12.3404 2.48438L12.842 1.98271C12.9514 1.87326 13.0128 1.72483 13.0128 1.57009C13.0127 1.41535 12.9512 1.26697 12.8418 1.15759C12.7323 1.04821 12.5839 0.98679 12.4291 0.986845C12.2744 0.9869 12.126 1.04842 12.0166 1.15788L11.515 1.65955C10.2543 0.588212 8.65378 0 6.99938 0C5.34498 0 3.74447 0.588212 2.4838 1.65955L1.98213 1.15788C1.87204 1.0517 1.72464 0.993001 1.57169 0.994438C1.41875 0.995874 1.27248 1.05733 1.1644 1.16556C1.05632 1.27379 0.995077 1.42014 0.993857 1.57309C0.992637 1.72604 1.05154 1.87335 1.15788 1.9833L1.65955 2.48496C0.588212 3.74563 0 5.34614 0 7.00055C0 8.65495 0.588212 10.2555 1.65955 11.5161L1.15788 12.0178C1.1022 12.0716 1.05781 12.136 1.02729 12.2072C0.996771 12.2784 0.980734 12.355 0.980116 12.4324C0.979498 12.5099 0.994312 12.5867 1.02369 12.6584C1.05307 12.73 1.09643 12.7951 1.15124 12.8499C1.20605 12.9046 1.27121 12.9479 1.34292 12.9771C1.41463 13.0064 1.49145 13.0211 1.56891 13.0204C1.64636 13.0197 1.72289 13.0035 1.79404 12.9729C1.86519 12.9423 1.92952 12.8978 1.9833 12.842L2.48496 12.3404C3.74563 13.4117 5.34614 13.9999 7.00055 13.9999C8.65495 13.9999 10.2555 13.4117 11.5161 12.3404L12.0178 12.842C12.1279 12.9482 12.2753 13.0069 12.4282 13.0055C12.5812 13.0041 12.7274 12.9426 12.8355 12.8344C12.9436 12.7261 13.0048 12.5798 13.0061 12.4268C13.0073 12.2739 12.9484 12.1266 12.842 12.0166L12.3404 11.5155ZM12.8333 6.99996C12.8344 8.3454 12.3679 9.64942 11.5138 10.689L9.43071 8.60588C9.74754 8.13022 9.9166 7.57148 9.9166 6.99996C9.9166 6.42845 9.74754 5.8697 9.43071 5.39405L11.5138 3.31096C12.3679 4.35051 12.8344 5.65452 12.8333 6.99996ZM5.24996 6.99996C5.24996 6.65385 5.3526 6.3155 5.54489 6.02772C5.73718 5.73993 6.0105 5.51563 6.33027 5.38317C6.65004 5.25072 7.0019 5.21606 7.34137 5.28359C7.68084 5.35111 7.99266 5.51778 8.2374 5.76253C8.48214 6.00727 8.64881 6.31909 8.71634 6.65856C8.78386 6.99802 8.74921 7.34989 8.61675 7.66966C8.4843 7.98943 8.26 8.26274 7.97221 8.45503C7.68442 8.64733 7.34608 8.74996 6.99996 8.74996C6.53583 8.74996 6.09071 8.56559 5.76253 8.2374C5.43434 7.90921 5.24996 7.46409 5.24996 6.99996ZM6.99996 1.16663C8.3454 1.16556 9.64942 1.63198 10.689 2.48613L8.60588 4.56921C8.13022 4.25238 7.57148 4.08333 6.99996 4.08333C6.42845 4.08333 5.8697 4.25238 5.39405 4.56921L3.31096 2.48613C4.35051 1.63198 5.65452 1.16556 6.99996 1.16663ZM1.16663 6.99996C1.16556 5.65452 1.63198 4.35051 2.48613 3.31096L4.56921 5.39405C4.25238 5.8697 4.08333 6.42845 4.08333 6.99996C4.08333 7.57148 4.25238 8.13022 4.56921 8.60588L2.48613 10.689C1.63198 9.64942 1.16556 8.3454 1.16663 6.99996ZM6.99996 12.8333C5.65452 12.8344 4.35051 12.3679 3.31096 11.5138L5.39405 9.43071C5.8697 9.74754 6.42845 9.9166 6.99996 9.9166C7.57148 9.9166 8.13022 9.74754 8.60588 9.43071L10.689 11.5138C9.64942 12.3679 8.3454 12.8344 6.99996 12.8333Z" fill="black"/>
</g>
<defs>
<clipPath id="clip0_529_4555">
<rect width="14" height="14" fill="white"/>
</clipPath>
</defs>
</svg>
