<svg width="21" height="14" viewBox="0 0 21 14" fill="none" xmlns="http://www.w3.org/2000/svg">
<path d="M6.70476 6.70476C8.55695 6.70476 10.0571 5.20457 10.0571 3.35238C10.0571 1.50019 8.55695 0 6.70476 0C4.85257 0 3.35238 1.50019 3.35238 3.35238C3.35238 5.20457 4.85257 6.70476 6.70476 6.70476ZM6.70476 1.67619C7.62667 1.67619 8.38095 2.43048 8.38095 3.35238C8.38095 4.27429 7.62667 5.02857 6.70476 5.02857C5.78286 5.02857 5.02857 4.27429 5.02857 3.35238C5.02857 2.43048 5.78286 1.67619 6.70476 1.67619ZM12.0602 8.85029C10.6522 8.12952 8.82514 7.54286 6.70476 7.54286C4.58438 7.54286 2.75733 8.12952 1.34933 8.85029C0.511238 9.27771 0 10.141 0 11.0796V13.4095H13.4095V11.0796C13.4095 10.141 12.8983 9.27771 12.0602 8.85029ZM11.7333 11.7333H1.67619V11.0796C1.67619 10.7611 1.84381 10.4762 2.112 10.3421C3.10933 9.83086 4.71848 9.21905 6.70476 9.21905C8.69105 9.21905 10.3002 9.83086 11.2975 10.3421C11.5657 10.4762 11.7333 10.7611 11.7333 11.0796V11.7333Z" fill="black"/>
<path d="M16.1015 1.24283C16.2087 0.984229 16.575 0.984229 16.6822 1.24283L17.4794 3.16621C17.5246 3.27534 17.6272 3.34989 17.745 3.35918L19.8206 3.523C20.0996 3.54502 20.2128 3.8934 20 4.07525L18.4171 5.42778C18.3273 5.50452 18.2881 5.62514 18.3156 5.74002L18.8012 7.76464C18.8665 8.03685 18.5702 8.25216 18.3315 8.10595L16.556 7.01848C16.4553 6.95677 16.3284 6.95677 16.2277 7.01848L14.4522 8.10595C14.2135 8.25216 13.9172 8.03685 13.9824 7.76464L14.468 5.74002C14.4956 5.62514 14.4564 5.50452 14.3666 5.42778L12.7837 4.07525C12.5709 3.8934 12.6841 3.54502 12.9631 3.523L15.0387 3.35918C15.1565 3.34989 15.2591 3.27534 15.3043 3.16621L16.1015 1.24283Z" fill="#1F1F27"/>
</svg>
