<svg width="24" height="24" viewBox="0 0 24 24" fill="none" xmlns="http://www.w3.org/2000/svg">
<path fill-rule="evenodd" clip-rule="evenodd" d="M9.78965 10.5255L12.973 13.7088C13.7571 14.4929 13.7571 15.7642 12.973 16.5483L9.89859 19.6227C8.72262 20.7986 6.816 20.7986 5.64004 19.6227L3.87648 17.8591C2.70052 16.6832 2.70052 14.7765 3.87648 13.6006L6.95085 10.5262C7.73496 9.74209 9.00625 9.74209 9.79036 10.5262L9.78965 10.5255Z" stroke="white" stroke-width="1.5" stroke-linecap="round" stroke-linejoin="round"/>
<path d="M11.957 7.9826L15.8587 4.08097C16.3956 3.54456 17.1893 3.35716 17.9095 3.59677L20.3165 4.3971C20.6483 4.50526 20.8997 4.77846 20.98 5.11804C21.0603 5.45762 20.9579 5.81451 20.7097 6.0598L15.4185 11.35" stroke="white" stroke-width="1.5" stroke-linecap="round" stroke-linejoin="round"/>
<path d="M8.32861 9.94258L9.96229 8.3099C10.289 7.98269 10.7324 7.79883 11.1948 7.79883C11.6572 7.79883 12.1006 7.98269 12.4273 8.3099L15.1905 11.073C15.5177 11.3998 15.7015 11.8432 15.7015 12.3056C15.7015 12.7679 15.5177 13.2114 15.1905 13.5381L13.5578 15.1718" stroke="white" stroke-width="1.5" stroke-linecap="round" stroke-linejoin="round"/>
</svg>
