<svg width="14" height="14" viewBox="0 0 14 14" fill="none" xmlns="http://www.w3.org/2000/svg">
<path d="M1.00158 8.575L3.4125 14H4.84517C5.11246 13.9998 5.37549 13.933 5.61039 13.8054C5.84528 13.6778 6.0446 13.4936 6.19027 13.2695C6.33594 13.0454 6.42333 12.7884 6.44453 12.522C6.46573 12.2555 6.42006 11.988 6.31167 11.7437L4.98108 8.75H6.41667C7.18993 8.75093 7.93126 9.05851 8.47804 9.60529C9.02482 10.1521 9.33241 10.8934 9.33333 11.6667H10.5V0H9.33333C9.33241 0.773264 9.02482 1.51459 8.47804 2.06137C7.93126 2.60815 7.18993 2.91574 6.41667 2.91667H1.75C1.28587 2.91667 0.840752 3.10104 0.512563 3.42923C0.184374 3.75742 0 4.20254 0 4.66667L0 7C0.00130141 7.33029 0.0960474 7.65347 0.273286 7.93218C0.450525 8.21089 0.703019 8.43375 1.00158 8.575ZM5.24533 12.2168C5.2751 12.2835 5.28771 12.3566 5.28202 12.4294C5.27632 12.5022 5.25251 12.5725 5.21274 12.6337C5.17297 12.695 5.11851 12.7454 5.05431 12.7802C4.99011 12.8151 4.91822 12.8333 4.84517 12.8333H4.17083L2.35608 8.75H3.70417L5.24533 12.2168ZM1.16667 4.66667C1.16667 4.51196 1.22812 4.36358 1.33752 4.25419C1.44692 4.14479 1.59529 4.08333 1.75 4.08333H6.41667C6.96046 4.08346 7.49875 3.97455 7.99972 3.76304C8.50069 3.55153 8.95417 3.24172 9.33333 2.85192V8.81475C8.95417 8.42495 8.50069 8.11514 7.99972 7.90363C7.49875 7.69212 6.96046 7.58321 6.41667 7.58333H1.75C1.59529 7.58333 1.44692 7.52187 1.33752 7.41248C1.22812 7.30308 1.16667 7.15471 1.16667 7V4.66667ZM13.0042 9.16242L11.6696 7.82775L12.4944 7.00292L13.8291 8.33758L13.0042 9.16242ZM12.5166 4.64158L11.6917 3.81675L13.0042 2.50425L13.8291 3.32908L12.5166 4.64158ZM12.25 5.25H14V6.41667H12.25V5.25Z" fill="black"/>
</svg>
