<svg width="15" height="13" viewBox="0 0 15 13" fill="none" xmlns="http://www.w3.org/2000/svg">
<path d="M14.3708 4.50169H0.519426C0.235473 4.50169 0 4.26621 0 3.98226C0 3.69831 0.235473 3.46284 0.519426 3.46284H14.3708C14.6547 3.46284 14.8902 3.69831 14.8902 3.98226C14.8902 4.26621 14.6547 4.50169 14.3708 4.50169ZM4.67483 10.0422H3.2897C3.00574 10.0422 2.77027 9.80676 2.77027 9.5228C2.77027 9.23885 3.00574 9.00338 3.2897 9.00338H4.67483C4.95878 9.00338 5.19426 9.23885 5.19426 9.5228C5.19426 9.80676 4.95878 10.0422 4.67483 10.0422ZM9.17652 10.0422H6.40625C6.1223 10.0422 5.88683 9.80676 5.88683 9.5228C5.88683 9.23885 6.1223 9.00338 6.40625 9.00338H9.17652C9.46047 9.00338 9.69595 9.23885 9.69595 9.5228C9.69595 9.80676 9.46047 10.0422 9.17652 10.0422Z" fill="black"/>
<path d="M11.2958 12.8125H3.59443C0.838007 12.8125 0 11.9814 0 9.25271V3.5598C0 0.831081 0.838007 0 3.59443 0H11.2889C14.0453 0 14.8833 0.831081 14.8833 3.5598V9.24578C14.8902 11.9814 14.0522 12.8125 11.2958 12.8125ZM3.59443 1.03885C1.41976 1.03885 1.03885 1.41284 1.03885 3.5598V9.24578C1.03885 11.3927 1.41976 11.7667 3.59443 11.7667H11.2889C13.4635 11.7667 13.8444 11.3927 13.8444 9.24578V3.5598C13.8444 1.41284 13.4635 1.03885 11.2889 1.03885H3.59443Z" fill="black"/>
</svg>
