<svg width="24" height="24" viewBox="0 0 24 24" fill="none" xmlns="http://www.w3.org/2000/svg">
<path d="M13.6707 7.2698C12.5783 7.57693 11.4218 7.57693 10.3293 7.2698" stroke="white" stroke-width="1.5" stroke-linecap="round" stroke-linejoin="round"/>
<path fill-rule="evenodd" clip-rule="evenodd" d="M19.2851 6.41216V6.41216C18.1316 4.48936 15.8337 3.57598 13.6748 4.18324L12.7204 4.45135C12.2492 4.5834 11.751 4.5834 11.2808 4.45135L10.3264 4.18324C8.16646 3.57598 5.8695 4.48936 4.71502 6.41216V6.41216C4.24983 7.18749 4.00372 8.07486 4.0027 8.98023V9.07327C3.99872 12.1486 4.61798 15.1928 5.82148 18.023L6.14962 18.7933C6.46175 19.5266 7.18305 20.0038 7.98138 20.0038V20.0038C8.79672 20.0038 9.53003 19.5056 9.83115 18.7483L10.7805 16.3573C10.9796 15.8551 11.4628 15.526 12.0001 15.526V15.526C12.5373 15.526 13.0205 15.8551 13.2196 16.3573L14.169 18.7483C14.4701 19.5056 15.2034 20.0038 16.0187 20.0038V20.0038C16.8171 20.0038 17.5384 19.5266 17.8505 18.7923L18.1786 18.022C19.3831 15.1918 20.0014 12.1476 19.9974 9.07227V8.97923C19.9964 8.07486 19.7503 7.18749 19.2851 6.41216Z" stroke="white" stroke-width="1.5" stroke-linecap="round" stroke-linejoin="round"/>
</svg>
