<svg width="23" height="25" viewBox="0 0 23 25" fill="none" xmlns="http://www.w3.org/2000/svg">
<path d="M14.0556 22.5L11.5 25L8.94444 22.5H2.54917C1.87309 22.5 1.2247 22.2373 0.746634 21.7696C0.268572 21.3019 0 20.6676 0 20.0062V2.49375C0 1.11625 1.14106 0 2.54917 0H20.4508C21.8589 0 23 1.11625 23 2.49375V20.0062C23 20.6676 22.7314 21.3019 22.2534 21.7696C21.7753 22.2373 21.1269 22.5 20.4508 22.5H14.0556ZM20.4444 20V2.5H2.55556V20H10.0024L11.5 21.465L12.9976 20H20.4444ZM6.35311 18.975C5.56726 18.642 4.81768 18.2324 4.11572 17.7525C4.92617 16.5238 6.03873 15.5136 7.35156 14.8143C8.66438 14.1151 10.1355 13.7491 11.6303 13.75C14.697 13.75 17.4021 15.2588 19.0133 17.5588C18.3248 18.057 17.5868 18.4863 16.8104 18.84C16.2187 18.0375 15.4404 17.3841 14.5397 16.9338C13.639 16.4835 12.6418 16.2491 11.6303 16.25C9.43894 16.25 7.50311 17.33 6.35311 18.975ZM11.5 12.5C10.9127 12.5 10.3312 12.3868 9.78856 12.167C9.24596 11.9471 8.75295 11.6248 8.33766 11.2186C7.92238 10.8123 7.59296 10.33 7.36821 9.79924C7.14346 9.26844 7.02778 8.69953 7.02778 8.125C7.02778 7.55047 7.14346 6.98156 7.36821 6.45076C7.59296 5.91996 7.92238 5.43766 8.33766 5.03141C8.75295 4.62515 9.24596 4.30289 9.78856 4.08303C10.3312 3.86316 10.9127 3.75 11.5 3.75C12.6861 3.75 13.8236 4.21094 14.6623 5.03141C15.501 5.85188 15.9722 6.96468 15.9722 8.125C15.9722 9.28532 15.501 10.3981 14.6623 11.2186C13.8236 12.0391 12.6861 12.5 11.5 12.5ZM11.5 10C12.0083 10 12.4958 9.80246 12.8553 9.45083C13.2147 9.09919 13.4167 8.62228 13.4167 8.125C13.4167 7.62772 13.2147 7.15081 12.8553 6.79917C12.4958 6.44754 12.0083 6.25 11.5 6.25C10.9917 6.25 10.5042 6.44754 10.1447 6.79917C9.78527 7.15081 9.58333 7.62772 9.58333 8.125C9.58333 8.62228 9.78527 9.09919 10.1447 9.45083C10.5042 9.80246 10.9917 10 11.5 10Z" fill="#57C876"/>
</svg>
