<svg width="25" height="22" viewBox="0 0 25 22" fill="none" xmlns="http://www.w3.org/2000/svg">
<path d="M3.535 21.9756L3.51 22L3.48375 21.9756H1.24C0.911017 21.9753 0.595621 21.8474 0.363112 21.6201C0.130603 21.3928 -1.66819e-07 21.0846 0 20.7633V1.21232C0.00228756 0.891694 0.133625 0.584816 0.365641 0.357979C0.597657 0.131143 0.911725 0.00255729 1.24 0H23.76C24.445 0 25 0.543285 25 1.21232V20.7633C24.9977 21.0839 24.8664 21.3908 24.6344 21.6176C24.4023 21.8444 24.0883 21.973 23.76 21.9756H3.535ZM22.5 14.6504V2.44173H2.5V19.5339L15 7.32519L22.5 14.6504ZM22.5 18.103L15 10.7778L6.035 19.5339H22.5V18.103ZM7.5 9.76693C6.83696 9.76693 6.20107 9.50967 5.73223 9.05176C5.26339 8.59385 5 7.97278 5 7.32519C5 6.67761 5.26339 6.05654 5.73223 5.59863C6.20107 5.14072 6.83696 4.88346 7.5 4.88346C8.16304 4.88346 8.79893 5.14072 9.26777 5.59863C9.73661 6.05654 10 6.67761 10 7.32519C10 7.97278 9.73661 8.59385 9.26777 9.05176C8.79893 9.50967 8.16304 9.76693 7.5 9.76693Z" fill="#57C876"/>
</svg>
