<svg width="20" height="20" viewBox="0 0 20 20" fill="none" xmlns="http://www.w3.org/2000/svg">
<path fill-rule="evenodd" clip-rule="evenodd" d="M10 20C15.5228 20 20 15.5228 20 10C20 4.47715 15.5228 0 10 0C4.47715 0 0 4.47715 0 10C0 15.5228 4.47715 20 10 20ZM6.4 8.8C7.28366 8.8 8 8.08366 8 7.2C8 6.31634 7.28366 5.6 6.4 5.6C5.51634 5.6 4.8 6.31634 4.8 7.2C4.8 8.08366 5.51634 8.8 6.4 8.8ZM13.6 8.80002C14.4837 8.80002 15.2 8.08368 15.2 7.20002C15.2 6.31637 14.4837 5.60002 13.6 5.60002C12.7164 5.60002 12 6.31637 12 7.20002C12 8.08368 12.7164 8.80002 13.6 8.80002ZM15.2 11.2001C15.2 14.072 12.8719 16.4001 10 16.4001C7.12813 16.4001 4.80001 14.072 4.80001 11.2001L10 11.2L15.2 11.2001Z" fill="#D9D9D9"/>
</svg>
