<?xml version="1.0" encoding="UTF-8"?>
<svg width="20px" height="28px" viewBox="0 0 20 28" version="1.1" xmlns="http://www.w3.org/2000/svg" xmlns:xlink="http://www.w3.org/1999/xlink">
    <!-- Generator: Sketch 64 (93537) - https://sketch.com -->
    <title>Group</title>
    <desc>Created with Sketch.</desc>
    <g id="Test-Labs" stroke="none" stroke-width="1" fill="none" fill-rule="evenodd">
        <g id="Group" fill="#FFFFFF">
            <g id="Vector-63-(Stroke)" transform="translate(0.000000, 4.000000)">
                <path d="M0.292893,0.364182 C0.683417,-0.026342 1.31658,-0.026342 1.70711,0.364182 L18.8976,17.5547 C19.2881,17.9452 19.2881,18.5783 18.8976,18.9689 C18.5071,19.3594 17.8739,19.3594 17.4834,18.9689 L0.292893,1.7784 C-0.0976311,1.38787 -0.0976311,0.754707 0.292893,0.364182 Z" id="Path"></path>
            </g>
            <g id="Vector-62-(Stroke)" fill-rule="nonzero">
                <path d="M4.91624,0.736883 C5.0349,0.301821 5.43006,0 5.88101,0 L16.2858,0 C16.6323,0 16.9542,0.179452 17.1364,0.474269 C17.3186,0.769085 17.3352,1.13723 17.1802,1.44721 L13.8324,8.14286 L19.0001,8.14286 C19.3742,8.14286 19.717,8.35171 19.8887,8.68417 C20.0603,9.01663 20.0319,9.41707 19.8152,9.72206 L15.4384,16.4286 L14,15 L17.0628,10.1429 L12.2143,10.1429 C11.8678,10.1429 11.5459,9.96341 11.3637,9.66859 C11.1815,9.37377 11.1649,9.00563 11.3199,8.69564 L14.6677,2 L6.6448,2 L5.5,6 L4,4.5 L4.91624,0.736883 Z" id="Path"></path>
                <path d="M7.60095,26.9125 C7.3396,27.2804 6.86428,27.4276 6.44076,27.2719 C6.01724,27.1163 5.75044,26.6962 5.78953,26.2467 L6.5998,16.9286 L1.80957009,16.9286 C1.49791,16.9286 1.20406,16.7833 1.01487,16.5356 C0.825689,16.2879 0.762809,15.9661 0.844815,15.6655 L2.88053,8.20117 L4.81006,8.7274 L3.11883,14.9286 L7.69053,14.9286 C7.97081,14.9286 8.23822,15.0462 8.42763,15.2528 C8.61704,15.4594 8.71105,15.736 8.68677,16.0152 L8.10058,22.7564 L12.6513,16.3516 L14,17.9065 L7.60095,26.9125 Z" id="Path"></path>
            </g>
        </g>
    </g>
</svg>