<svg width="141" height="141" viewBox="0 0 141 141" fill="none" xmlns="http://www.w3.org/2000/svg">
<path d="M141 70.5L140.513 46.1481C140.025 21.754 120.613 1.9652 96.2323 1.00911L70.5 0L44.7847 1.00844C20.3975 1.96481 0.982188 21.7642 0.50373 46.1655L0 71.8558L0.469469 94.625C0.968624 118.834 20.1138 138.53 44.2989 139.716L70.5 141L96.6832 139.717C120.876 138.531 140.024 118.823 140.513 94.6067L141 70.5Z" fill="url(#paint0_linear_1667_9450)"/>
<path fill-rule="evenodd" clip-rule="evenodd" d="M42.0322 97.5246V44.6337C42.0322 40.9358 43.7504 37.4247 46.8507 35.4077C48.6436 34.2124 50.7353 33.5774 52.7897 33.5774C53.6488 33.5774 54.3585 34.2871 54.3585 35.1462V106.937C54.3585 107.797 53.6862 108.544 52.8271 108.544C50.9594 108.581 49.0918 108.095 47.411 107.124C44.0119 105.182 42.0322 101.447 42.0322 97.5246ZM58.9149 86.0548L75.462 96.1399L58.9149 106.599V86.0548ZM58.9149 56.1018L75.462 46.0167L58.9149 35.558V56.1018ZM81.9605 50.127L87.6007 53.7128C90.1406 55.319 90.1033 59.0168 87.5633 60.5856L58.9514 78.0666V61.5195L77.6649 50.0896C78.9723 49.2679 80.6531 49.3052 81.9605 50.127ZM74.7919 73.7698L66.6117 78.775L61.233 82.062L77.6307 92.0725C78.938 92.8942 80.6188 92.8569 81.9262 92.0351L87.6037 88.4493C90.1437 86.8432 90.1063 83.1079 87.5664 81.5391L74.7919 73.7698ZM100.784 62.0373C103.884 64.017 105.752 67.3787 105.752 71.0766C105.752 74.7745 103.884 78.1362 100.784 80.1159L97.4598 82.2076L79.2318 71.0766L97.4598 59.9456L100.784 62.0373Z" fill="white"/>
<defs>
<linearGradient id="paint0_linear_1667_9450" x1="125.5" y1="164.5" x2="-2.33755e-07" y2="-23.726" gradientUnits="userSpaceOnUse">
<stop stop-color="#71BB42"/>
<stop offset="1" stop-color="#8AD759"/>
</linearGradient>
</defs>
</svg>
