<svg width="10" height="16" viewBox="0 0 10 16" fill="none" xmlns="http://www.w3.org/2000/svg">
<path d="M9.5 9.52149C9.5 10.1689 9.37333 10.7319 9.12 11.1963C8.86666 11.6608 8.51481 12.0408 8.09259 12.3504C7.6563 12.66 7.1637 12.8852 6.58666 13.0259C6.0237 13.1667 5.41851 13.237 4.77111 13.237C4.36296 13.237 3.95482 13.223 3.54667 13.1948C3.13852 13.1667 2.73037 13.1104 2.33629 12.9978C1.94222 12.8993 1.54815 12.7445 1.15408 12.5333C0.760002 12.3222 0.38 12.0267 0 11.6467L2.15333 9.49335C2.37852 9.71853 2.63185 9.90149 2.87111 10.0282C3.11037 10.1548 3.36371 10.2393 3.61704 10.3096C3.8563 10.3659 4.09556 10.4082 4.29259 10.4082C4.5037 10.4082 4.67259 10.4222 4.81333 10.4222C4.94 10.4222 5.08074 10.4082 5.23556 10.3941C5.40445 10.38 5.55926 10.3378 5.7 10.2815C5.85481 10.2252 5.98148 10.1548 6.08 10.0563C6.17852 9.95779 6.23481 9.8452 6.23481 9.70446C6.23481 9.54964 6.17852 9.4089 6.08 9.26816C5.98148 9.12741 5.77037 9.04297 5.43259 9.01482L3.7437 8.84593C3.26518 8.80371 2.82888 8.71927 2.44888 8.57853C2.05481 8.43779 1.71704 8.24075 1.44963 7.98742C1.16815 7.73409 0.957034 7.41038 0.788145 7.03038C0.63333 6.65038 0.548884 6.20001 0.548884 5.6652C0.548884 5.06001 0.675552 4.52519 0.928885 4.07482C1.18222 3.62445 1.52 3.24445 1.92815 2.9489C2.3363 2.63927 2.80074 2.41408 3.33556 2.27334C3.8563 2.11853 4.39111 2.04816 4.94 2.04816C5.84074 2.04816 6.64296 2.1326 7.36074 2.31556C8.07852 2.49853 8.71185 2.85038 9.26074 3.39927L7.22 5.42593C6.95259 5.15853 6.60074 4.97557 6.17851 4.89112C5.75629 4.80668 5.33407 4.76445 4.89778 4.76445C4.48963 4.76445 4.20815 4.83482 4.05333 4.98964C3.89852 5.14445 3.81407 5.27112 3.81407 5.39778C3.81407 5.42593 3.81408 5.46816 3.82815 5.52446C3.82815 5.58075 3.8563 5.65112 3.89852 5.70742C3.94074 5.76371 4.01111 5.82001 4.09555 5.87631C4.19407 5.9326 4.33481 5.97482 4.51777 6.00297L6.20666 6.17186C6.76963 6.22816 7.26222 6.35483 7.68444 6.53779C8.10666 6.73483 8.44444 6.97408 8.71185 7.26964C8.97925 7.56519 9.17629 7.90297 9.30296 8.28297C9.42963 8.67704 9.5 9.08519 9.5 9.52149Z" fill="#69BD06"/>
<path d="M4.64443 13.8141H3.65924V15.0667H4.64443V13.8141Z" fill="#69BD06"/>
<path d="M6.48818 13.8141H5.50299V15.0667H6.48818V13.8141Z" fill="#69BD06"/>
<path d="M4.64443 0.218506H3.65924V1.4711H4.64443V0.218506Z" fill="#69BD06"/>
<path d="M6.48818 0.218506H5.50299V1.4711H6.48818V0.218506Z" fill="#69BD06"/>
</svg>
