<svg width="18" height="18" viewBox="0 0 18 18" fill="none" xmlns="http://www.w3.org/2000/svg">
<path d="M11.6384 11.9629L9.71873 15.9965C9.68241 16.0728 9.62807 16.1391 9.56041 16.1897C9.49275 16.2402 9.41379 16.2736 9.33036 16.2868C9.24693 16.3001 9.16153 16.2928 9.08154 16.2656C9.00155 16.2385 8.92937 16.1923 8.87123 16.131L5.7987 12.8876C5.71662 12.801 5.60729 12.7453 5.48902 12.7297L1.05893 12.1502C0.975233 12.1392 0.895472 12.108 0.826529 12.0593C0.757587 12.0105 0.701531 11.9458 0.663196 11.8706C0.624862 11.7953 0.6054 11.7119 0.606489 11.6275C0.607577 11.5431 0.629184 11.4602 0.669445 11.386L2.80512 7.46163C2.86189 7.35668 2.88088 7.2354 2.8589 7.11812L2.04089 2.72618C2.02536 2.64305 2.03031 2.55739 2.05533 2.4766C2.08035 2.39582 2.12468 2.32235 2.18448 2.26255C2.24428 2.20275 2.31775 2.15842 2.39853 2.13341C2.47931 2.10839 2.56498 2.10343 2.64811 2.11896L7.04003 2.93698C7.15731 2.95896 7.27859 2.93997 7.38354 2.88319L11.3079 0.747513C11.3822 0.707241 11.4651 0.685651 11.5496 0.68461C11.6341 0.683568 11.7175 0.703106 11.7928 0.741535C11.868 0.779964 11.9327 0.836129 11.9814 0.905181C12.0301 0.974232 12.0612 1.05409 12.0721 1.13787L12.6516 5.56711C12.6672 5.68538 12.7229 5.7947 12.8095 5.87679L16.0529 8.94932C16.1142 9.00746 16.1604 9.07965 16.1875 9.15964C16.2147 9.23963 16.2219 9.32503 16.2087 9.40846C16.1955 9.49189 16.1621 9.57085 16.1115 9.63851C16.061 9.70617 15.9947 9.76051 15.9184 9.79683L11.8848 11.7165C11.7768 11.7679 11.6898 11.8549 11.6384 11.9629ZM12.3298 13.6345L13.5563 12.4079L17.237 16.0876L16.0095 17.3151L12.3298 13.6345Z" fill="#969696"/>
</svg>
