<svg width="14" height="14" viewBox="0 0 14 14" fill="none" xmlns="http://www.w3.org/2000/svg">
<path d="M9.02775 4.39187C9.37716 4.62534 9.78795 4.74997 10.2082 4.75C10.7716 4.74927 11.3117 4.52514 11.7101 4.12675C12.1086 3.72828 12.3327 3.18802 12.3333 2.6245L9.02775 4.39187ZM9.02775 4.39187C8.67829 4.15838 8.40592 3.8265 8.24509 3.4382M9.02775 4.39187L8.24509 3.4382M8.24509 3.4382C8.08425 3.04991 8.04217 2.62264 8.12416 2.21043M8.24509 3.4382L8.12416 2.21043M8.12416 2.21043C8.20616 1.79822 8.40854 1.41959 8.70573 1.1224M8.12416 2.21043L8.70573 1.1224M8.70573 1.1224C9.00292 0.825213 9.38156 0.622826 9.79377 0.540832M8.70573 1.1224L9.79377 0.540832M9.79377 0.540832C10.206 0.458839 10.6332 0.500921 11.0215 0.661757M9.79377 0.540832L11.0215 0.661757M11.0215 0.661757C11.4098 0.822594 11.7417 1.09496 11.9752 1.44441M11.0215 0.661757L11.9752 1.44441M11.9752 1.44441C12.2086 1.79372 12.3332 2.20435 12.3333 2.62445L11.9752 1.44441ZM4.37485 7.08333C3.95461 7.0833 3.54382 6.95868 3.19441 6.72521C2.84496 6.49171 2.57259 6.15983 2.41176 5.77154C2.25092 5.38324 2.20884 4.95598 2.29083 4.54377C2.37282 4.13156 2.57521 3.75292 2.8724 3.45573C3.16958 3.15855 3.54822 2.95616 3.96043 2.87417C4.37264 2.79217 4.79991 2.83425 5.1882 2.99509C5.5765 3.15593 5.90837 3.42829 6.14187 3.77775C6.37534 4.12716 6.49997 4.53795 6.5 4.95818C6.49927 5.52158 6.27514 6.0617 5.87675 6.46008C5.47836 6.85847 4.93824 7.0826 4.37485 7.08333ZM7.54115 9.95885C7.99431 10.412 8.24923 11.0264 8.25 11.6673V13.5H0.5V11.667C0.500843 11.0262 0.755756 10.4119 1.20885 9.95885C1.66201 9.50569 2.2764 9.25077 2.91727 9.25H5.83273C6.4736 9.25077 7.08799 9.50569 7.54115 9.95885ZM7.80343 7.53255C7.94982 7.33883 8.07972 7.13282 8.1916 6.91667L11.0827 6.91667C11.0829 6.91667 11.083 6.91667 11.0831 6.91667C11.7238 6.91753 12.3381 7.17245 12.7912 7.62552C13.2443 8.07868 13.4992 8.69307 13.5 9.33393V11.1667H10.3886C10.2975 10.3476 9.98694 9.56483 9.48553 8.90306C9.04022 8.31533 8.46228 7.84673 7.80343 7.53255Z" stroke="black"/>
</svg>
