<svg width="34" height="40" viewBox="0 0 34 40" fill="none" xmlns="http://www.w3.org/2000/svg">
<path fill-rule="evenodd" clip-rule="evenodd" d="M0 34.2129V6.43952C0 4.49774 0.90224 2.65402 2.5302 1.59487C3.47167 0.967225 4.57005 0.633789 5.64882 0.633789C6.09994 0.633789 6.4726 1.00645 6.4726 1.45757V39.1556C6.4726 39.6067 6.11955 39.999 5.66843 39.999C4.68773 40.0186 3.70703 39.7636 2.82441 39.2536C1.03954 38.2337 0 36.2723 0 34.2129ZM8.86523 28.1909L17.5542 33.4867L8.86523 38.9786V28.1909ZM8.86523 12.4608L17.5542 7.16507L8.86523 1.67317V12.4608ZM20.9673 9.3231L23.929 11.206C25.2628 12.0494 25.2431 13.9912 23.9094 14.815L8.88511 23.9943V15.3053L18.7117 9.30349C19.3982 8.87198 20.2808 8.89159 20.9673 9.3231ZM17.2021 21.7382L12.9066 24.3664L10.0822 26.0925L18.6927 31.349C19.3792 31.7805 20.2618 31.7609 20.9483 31.3294L23.9297 29.4464C25.2634 28.603 25.2438 26.6416 23.91 25.8179L17.2021 21.7382ZM30.8519 15.5799C32.4799 16.6194 33.4606 18.3847 33.4606 20.3264C33.4606 22.2682 32.4799 24.0335 30.8519 25.073L29.1063 26.1714L19.5347 20.3264L29.1063 14.4815L30.8519 15.5799Z" fill="white"/>
</svg>
