<svg width="23" height="25" viewBox="0 0 23 25" fill="none" xmlns="http://www.w3.org/2000/svg">
<path d="M23 7.5V23.7412C23.0011 23.9054 22.9693 24.0682 22.9061 24.2203C22.843 24.3724 22.7499 24.5108 22.632 24.6277C22.5142 24.7446 22.374 24.8376 22.2194 24.9015C22.0649 24.9654 21.8989 24.9989 21.7311 25H1.26883C0.932538 25 0.609999 24.8694 0.372084 24.6369C0.134168 24.4044 0.000338664 24.089 0 23.76V1.24C0 0.56875 0.573721 0 1.28033 0H15.3295L23 7.5ZM20.4444 8.75H14.0555V2.5H2.55555V22.5H20.4444V8.75Z" fill="#57C876"/>
</svg>
