<svg width="150" height="150" viewBox="0 0 150 150" fill="none" xmlns="http://www.w3.org/2000/svg">
<path opacity="0.2" d="M125 77L124.655 59.7292C124.309 42.4283 110.541 28.3938 93.2499 27.7157L75 27L56.7622 27.7152C39.4663 28.3935 25.6966 42.4356 25.3573 59.7415L25 77.9615L25.333 94.1099C25.687 111.279 39.2651 125.248 56.4177 126.089L75 127L93.5696 126.09C110.727 125.249 124.308 111.272 124.655 94.0969L125 77Z" fill="url(#paint0_linear_358_788)"/>
<path d="M119.445 77.0001L119.138 61.6482C118.83 46.2697 106.592 33.7946 91.2222 33.1918L75.0001 32.5557L58.7887 33.1914C43.4146 33.7943 31.1749 46.2762 30.8732 61.6592L30.5557 77.8548L30.8516 92.2089C31.1663 107.471 43.2357 119.887 58.4825 120.635L75.0001 121.445L91.5064 120.635C106.758 119.888 118.829 107.464 119.138 92.1974L119.445 77.0001Z" fill="#141414"/>
<g filter="url(#filter0_d_358_788)">
<path d="M115 77L114.724 63.1833C114.447 49.3427 103.433 38.115 89.5999 37.5725L75 37L60.4098 37.5722C46.573 38.1148 35.5573 49.3485 35.2858 63.1932L35 77.7692L35.2664 90.6879C35.5496 104.424 46.4121 115.599 60.1341 116.271L75 117L89.8557 116.272C103.582 115.599 114.446 104.417 114.724 90.6776L115 77Z" fill="url(#paint1_linear_358_788)"/>
</g>
<path fill-rule="evenodd" clip-rule="evenodd" d="M58.8457 92.3319V62.3229C58.8457 60.2248 59.8206 58.2327 61.5796 57.0883C62.5968 56.4101 63.7836 56.0498 64.9492 56.0498C65.4367 56.0498 65.8393 56.4525 65.8393 56.9399V97.6725C65.8393 98.1599 65.4579 98.5838 64.9704 98.5838C63.9108 98.605 62.8511 98.3295 61.8975 97.7785C59.9689 96.6764 58.8457 94.5572 58.8457 92.3319ZM68.4245 85.8254L77.813 91.5474L68.4245 97.4814V85.8254ZM68.4245 68.8291L77.813 63.107L68.4245 57.173V68.8291ZM81.5007 65.4387L84.7009 67.4733C86.142 68.3845 86.1208 70.4826 84.6797 71.3727L68.446 81.291V71.9026L79.0636 65.4176C79.8053 64.9513 80.759 64.9725 81.5007 65.4387ZM77.4325 78.8532L72.7913 81.6931L69.7395 83.558L79.0432 89.2377C79.7849 89.704 80.7386 89.6828 81.4803 89.2165L84.7016 87.182C86.1427 86.2707 86.1216 84.1514 84.6804 83.2614L77.4325 78.8532ZM92.1811 72.1988C93.9401 73.322 94.9998 75.2294 94.9998 77.3274C94.9998 79.4255 93.9401 81.3329 92.1811 82.4561L90.2949 83.6429L79.9529 77.3274L90.2949 71.012L92.1811 72.1988Z" fill="white"/>
<defs>
<filter id="filter0_d_358_788" x="0" y="0" width="150" height="150" filterUnits="userSpaceOnUse" color-interpolation-filters="sRGB">
<feFlood flood-opacity="0" result="BackgroundImageFix"/>
<feColorMatrix in="SourceAlpha" type="matrix" values="0 0 0 0 0 0 0 0 0 0 0 0 0 0 0 0 0 0 127 0" result="hardAlpha"/>
<feOffset dy="-2"/>
<feGaussianBlur stdDeviation="17.5"/>
<feComposite in2="hardAlpha" operator="out"/>
<feColorMatrix type="matrix" values="0 0 0 0 0.495833 0 0 0 0 1 0 0 0 0 0.175 0 0 0 0.2 0"/>
<feBlend mode="normal" in2="BackgroundImageFix" result="effect1_dropShadow_358_788"/>
<feBlend mode="normal" in="SourceGraphic" in2="effect1_dropShadow_358_788" result="shape"/>
</filter>
<linearGradient id="paint0_linear_358_788" x1="39.9038" y1="139.981" x2="25" y2="10.1731" gradientUnits="userSpaceOnUse">
<stop stop-color="#9AE769"/>
<stop offset="1" stop-color="#69BD06"/>
</linearGradient>
<linearGradient id="paint1_linear_358_788" x1="46.9231" y1="127.385" x2="35" y2="23.5385" gradientUnits="userSpaceOnUse">
<stop stop-color="#9AE769"/>
<stop offset="1" stop-color="#69BD06"/>
</linearGradient>
</defs>
</svg>
