<svg width="24" height="24" viewBox="0 0 24 24" fill="none" xmlns="http://www.w3.org/2000/svg">
<path d="M7.25 24H17.75C18.3467 24 18.919 23.7629 19.341 23.341C19.7629 22.919 20 22.3467 20 21.75V2.25C20 1.65326 19.7629 1.08097 19.341 0.65901C18.919 0.237053 18.3467 0 17.75 0L7.25 0C6.65326 0 6.08097 0.237053 5.65901 0.65901C5.23705 1.08097 5 1.65326 5 2.25V21.75C5 22.3467 5.23705 22.919 5.65901 23.341C6.08097 23.7629 6.65326 24 7.25 24ZM10.28 1.5H14.72V1.875H10.28V1.5ZM6.5 2.25C6.5 2.05109 6.57902 1.86032 6.71967 1.71967C6.86032 1.57902 7.05109 1.5 7.25 1.5H8.78V2.625C8.78 2.82391 8.85902 3.01468 8.99967 3.15533C9.14032 3.29598 9.33109 3.375 9.53 3.375H15.47C15.6689 3.375 15.8597 3.29598 16.0003 3.15533C16.141 3.01468 16.22 2.82391 16.22 2.625V1.5H17.75C17.9489 1.5 18.1397 1.57902 18.2803 1.71967C18.421 1.86032 18.5 2.05109 18.5 2.25V21.75C18.5 21.9489 18.421 22.1397 18.2803 22.2803C18.1397 22.421 17.9489 22.5 17.75 22.5H7.25C7.05109 22.5 6.86032 22.421 6.71967 22.2803C6.57902 22.1397 6.5 21.9489 6.5 21.75V2.25Z" fill="black"/>
</svg>
