<svg width="24" height="30" viewBox="0 0 24 30" fill="none" xmlns="http://www.w3.org/2000/svg">
<path d="M12.1869 8.6197C11.0231 8.6197 9.22168 7.27236 7.32457 7.32106C4.82166 7.35353 2.526 8.79826 1.23469 11.0871C-1.36388 15.681 0.565118 22.4664 3.09991 26.2C4.34339 28.0181 5.81007 30.0634 7.755 29.9985C9.62023 29.9173 10.3217 28.7648 12.5855 28.7648C14.8333 28.7648 15.471 29.9985 17.4478 29.9498C19.4565 29.9173 20.7319 28.0992 21.9594 26.2649C23.3783 24.1546 23.9681 22.1093 24 21.9957C23.9522 21.9794 20.0942 20.4698 20.0464 15.9245C20.0145 12.126 23.0913 10.3079 23.2348 10.2268C21.4811 7.61325 18.7869 7.32106 17.8463 7.25613C15.3913 7.06133 13.3347 8.6197 12.1869 8.6197ZM16.3319 4.78872C17.3681 3.52255 18.0536 1.75316 17.8623 0C16.3797 0.0649318 14.5942 1.00644 13.526 2.27261C12.5695 3.39269 11.7405 5.19454 11.9637 6.91524C13.6058 7.0451 15.2956 6.05489 16.3319 4.78872Z" fill="black"/>
</svg>
