<svg width="24" height="24" viewBox="0 0 24 24" fill="none" xmlns="http://www.w3.org/2000/svg">
<path fill-rule="evenodd" clip-rule="evenodd" d="M3.86078 15.9537L10.0859 9.72854L14.2723 13.9149L8.04718 20.1401C6.89114 21.2961 5.01682 21.2961 3.86078 20.1401V20.1401C2.70474 18.984 2.70474 17.1097 3.86078 15.9537V15.9537Z" stroke="white" stroke-width="1.5" stroke-linecap="round" stroke-linejoin="round"/>
<path fill-rule="evenodd" clip-rule="evenodd" d="M19.4171 12.8863L14.271 13.9157L10.0842 9.72897L11.1137 4.58283C11.3187 3.55571 12.2907 2.8679 13.3276 3.01618L13.4336 3.03118C15.3356 3.30331 17.0981 4.18473 18.4567 5.54323V5.54323C19.8152 6.90189 20.6966 8.66436 20.9688 10.5663L20.9838 10.6724C21.132 11.7092 20.4442 12.6812 19.4171 12.8863V12.8863Z" stroke="white" stroke-width="1.5" stroke-linecap="round" stroke-linejoin="round"/>
<path d="M5.99756 18.0028L7.99839 16.002" stroke="white" stroke-width="1.5" stroke-linecap="round" stroke-linejoin="round"/>
</svg>
